<svg xmlns="http://www.w3.org/2000/svg" width="48" height="28.619" viewBox="0 0 48 28.619">
  <g id="Group_1626" data-name="Group 1626" transform="translate(674.916 -415.165)">
    <g id="Group_1625" data-name="Group 1625" transform="translate(-674.916 415.165)">
      <path id="Path_1714" data-name="Path 1714" d="M-655.631,418.668a10.728,10.728,0,0,0-8.333-3.5,11.446,11.446,0,0,0-7.833,2.714,8.842,8.842,0,0,0-3.118,6.948,8.943,8.943,0,0,0,2.868,6.755,9.645,9.645,0,0,0,6.948,2.733,9.92,9.92,0,0,0,4.215-.9,6.207,6.207,0,0,0,2.791-2.329,6.846,6.846,0,0,1-2.925,5.2,10.688,10.688,0,0,1-6.6,2.021,20.609,20.609,0,0,1-2.584-.156v5.446a21.058,21.058,0,0,0,3.046.2q6.7,0,10.7-3.965c2.675-2.637,4-6.39,4-11.22Q-652.456,422.161-655.631,418.668Z" transform="translate(674.916 -415.165)" fill="#0b0b15"/>
    </g>
    <g id="Group_1626-2" data-name="Group 1626" transform="translate(-649.376 415.165)">
      <path id="Path_1715" data-name="Path 1715" d="M-461.246,418.668a10.728,10.728,0,0,0-8.334-3.5,11.446,11.446,0,0,0-7.833,2.714,8.842,8.842,0,0,0-3.118,6.948,8.943,8.943,0,0,0,2.868,6.755,9.645,9.645,0,0,0,6.948,2.733,9.92,9.92,0,0,0,4.215-.9,6.207,6.207,0,0,0,2.791-2.329,6.846,6.846,0,0,1-2.925,5.2,10.688,10.688,0,0,1-6.6,2.021,20.612,20.612,0,0,1-2.584-.156v5.446a21.061,21.061,0,0,0,3.046.2q6.7,0,10.7-3.965c2.675-2.637,4-6.39,4-11.22Q-458.071,422.161-461.246,418.668Z" transform="translate(480.531 -415.165)" fill="#0b0b15"/>
    </g>
  </g>
</svg>
