<svg id="Логтип_и_монограмма-01" data-name="Логтип и монограмма-01" xmlns="http://www.w3.org/2000/svg" width="188.591" height="246.553" viewBox="0 0 188.591 246.553">
  <g id="Group_1665" data-name="Group 1665">
    <g id="Group_1661" data-name="Group 1661" transform="translate(0 152.35)">
      <g id="Group_1655" data-name="Group 1655">
        <path id="Path_1722" data-name="Path 1722" d="M82.755,276.641c1.42-.868,3.708-1.657,4.891,0,1.262,2.13,1.262,4.734,1.657,7.1.868,10.1,1.341,20.275,2.051,30.453a16.568,16.568,0,0,0,1.262,5.522c3.392-7.731,6.706-15.621,10.1-23.352a106.858,106.858,0,0,1,5.759-11.676c1.026-1.657,2.288-3.392,4.339-3.866,1.5-.316,2.6,1.026,3.156,2.209,1.736,3.629,1.183,7.653.71,11.439-1.1,8.678-1.657,17.593-.316,26.271a16.575,16.575,0,0,0,2.367,6.311,8.885,8.885,0,0,1-6.311,2.525c-1.736,0-2.761-1.657-3.235-3.077a25.853,25.853,0,0,1-.473-9.862c.71-7.179,2.367-14.2,3.156-21.38.079-1.815.473-3.787-.316-5.522-.631-.947-1.578.316-1.893.868-2.84,4.812-4.655,10.177-6.864,15.305-2.288,5.522-4.26,11.2-7.179,16.41a7.551,7.551,0,0,1-4.5,4.024,4.258,4.258,0,0,1-4.5-1.736c-1.815-2.367-2.288-5.444-2.525-8.363-.631-9.7.158-19.329.631-29.032a11.953,11.953,0,0,0-.394-4.734,4.278,4.278,0,0,0-2.761,2.051,62.79,62.79,0,0,0-5.207,9.23,205.154,205.154,0,0,0-9.23,23.352c-2.209,7.1-4.576,14.437-3.866,22.011-2.446-.237-5.049-.079-7.179-1.5a4.218,4.218,0,0,1-1.5-4.1,44.67,44.67,0,0,1,2.13-9.625,167.176,167.176,0,0,1,15.857-35.581C75.418,284.057,78.258,279.4,82.755,276.641Z" transform="translate(-54.553 -244.921)" fill="#010101"/>
        <g id="Group_1653" data-name="Group 1653" transform="translate(69.621)">
          <path id="Path_1723" data-name="Path 1723" d="M192.8,237.546c1.183-.473,3.077-.158,3.392,1.341.552,2.367-2.6,4.1-4.5,2.919C190.2,240.7,191.063,238.019,192.8,237.546Z" transform="translate(-152.958 -236.83)" fill="#010101"/>
          <path id="Path_1724" data-name="Path 1724" d="M203.158,236.856c1.262-.473,3.235.079,3.314,1.736.237,2.367-3.156,3.945-4.812,2.367A2.635,2.635,0,0,1,203.158,236.856Z" transform="translate(-155.113 -236.694)" fill="#010101"/>
          <g id="Group_1652" data-name="Group 1652" transform="translate(0 5.834)">
            <path id="Path_1725" data-name="Path 1725" d="M181.063,250.724a7.625,7.625,0,0,1,6.233-3.787,3.175,3.175,0,0,1,2.919,1.736,6.62,6.62,0,0,1-.316,5.6,15.411,15.411,0,0,1-5.049,5.286,4.183,4.183,0,0,0,3.945,2.682c2.682-.158,4.891-2.051,6.785-3.787A33.1,33.1,0,0,0,200,252.933c.473-1.736.079-3.629-.158-5.365a4.2,4.2,0,0,1,2.682-.868,2.392,2.392,0,0,1,1.578,1.972c.71,3.235.079,6.627-.71,9.783,1.657-2.682,3.235-5.444,4.891-8.126,1.026-1.42,2.13-3.077,3.866-3.629a2.249,2.249,0,0,1,2.761,1.42c.789,2.288.316,4.734,0,7.1,1.5-2.761,2.682-6,5.207-8.047,1.341-1.1,4.024-1.42,4.891.473.947,3.314-1.341,6.785,0,10.019a1.905,1.905,0,0,0,2.367.947,16.053,16.053,0,0,0,6.548-3.945c.631-.631,1.578-1.183,1.657-2.209a33.893,33.893,0,0,0,.316-7.495,8.871,8.871,0,0,1,3.235-.316c.789.158,1.1,1.026,1.183,1.736,0,2.919-.947,5.759-.631,8.678,0,.868.789,1.815,1.736,1.42a8.337,8.337,0,0,0,3.314-2.682c.394-.552.947-.947,1.026-1.657a37.95,37.95,0,0,0,.552-7.889c1.341-.237,3.392-.473,3.945,1.183.868,3.471-1.262,7.021-.237,10.493.158.71.947,1.262,1.578.71a14.182,14.182,0,0,0,3.392-3.471,45.631,45.631,0,0,0,4.1-6.785c.158.158.552.395.71.552a18.281,18.281,0,0,1-2.84,5.68c-1.5,2.13-3.156,4.339-5.444,5.6a3.917,3.917,0,0,1-4.5-.158c-1.1-.947-1.262-2.367-1.42-3.708-1.341,1.893-2.682,3.866-4.734,4.97a3.964,3.964,0,0,1-4.26-.158c-1.1-.947-1.183-2.525-1.262-3.866-2.919,2.919-6.627,5.444-10.887,5.759a3.234,3.234,0,0,1-3.471-2.051c-.868-2.84.237-5.68.552-8.52,0-.473,0-1.262-.631-1.262a2.87,2.87,0,0,0-1.262,1.1c-2.13,3.077-3.235,6.785-5.444,9.783-.789,1.1-2.209.316-3-.394a31.106,31.106,0,0,0,1.183-9.309c-.079-.473-.158-1.341-.789-1.183a4.467,4.467,0,0,0-1.5,1.893c-1.5,2.682-2.761,5.444-4.418,7.968a8.023,8.023,0,0,1-3.077,3,3.491,3.491,0,0,1-3.392-.552c.316-1.736.552-3.392.789-5.128-2.209,2.919-4.734,5.759-8.047,7.337a8.871,8.871,0,0,1-10.414-1.815,9.491,9.491,0,0,1-1.736-3.156c-3,3.077-6.706,5.838-11.124,6.311a3.346,3.346,0,0,1-3.787-1.815c-1.026-2.761.079-5.6.394-8.363.079-.552.158-1.578-.631-1.657a4.583,4.583,0,0,0-1.736,1.736c-1.578,2.525-2.682,5.286-4.181,7.889a5.623,5.623,0,0,1-1.341,1.657c-.947.394-1.815-.237-2.525-.868a31.3,31.3,0,0,0,1.183-8.994,2.274,2.274,0,0,0-.552-1.578c-.71,0-1.1.789-1.42,1.262-1.893,3.077-3.235,6.469-5.365,9.388-.868,1.1-1.893,2.288-3.392,2.367a4.012,4.012,0,0,1-2.525-.789c.631-4.655,1.893-9.467.868-14.2.947-.552,2.13-1.262,3.235-.631a3.424,3.424,0,0,1,1.262,2.525c.473,3.077-.158,6.075-.868,9.073,1.341-2.288,2.761-4.5,4.1-6.785a17.348,17.348,0,0,1,3.156-4.024,2.955,2.955,0,0,1,3.156-.789,3.3,3.3,0,0,1,1.5,2.525,18.688,18.688,0,0,1-.316,5.917c1.5-2.761,2.682-6,5.207-8.047,1.42-1.1,4.1-1.42,4.891.552.789,2.919-.868,5.917-.316,8.836.079,1.026.789,2.288,1.972,2.209a10.83,10.83,0,0,0,5.207-2.367,23.057,23.057,0,0,0,3.55-3.235A11.318,11.318,0,0,1,181.063,250.724Zm3.866.316a10.458,10.458,0,0,0-.473,7.1c1.893-1.657,3.787-3.787,4.024-6.39.079-.947-.158-2.288-1.262-2.446A2.463,2.463,0,0,0,184.929,251.04Z" transform="translate(-142.8 -244.088)" fill="#010101"/>
          </g>
        </g>
        <g id="Group_1654" data-name="Group 1654" transform="translate(66.743 33.867)">
          <path id="Path_1726" data-name="Path 1726" d="M144.318,291.044c.947-5.6,8.2-8.915,12.938-5.838,3.629,2.682,3.945,7.81,3.235,11.913,2.288,1.893,5.522,1.262,7.889-.079a14.759,14.759,0,0,0,4.891-4.734c.631-2.6.079-5.286-.316-7.889,1.341-.868,3.077-1.815,4.655-1.026,1.262.789,1.657,2.367,1.815,3.787.71,4.5-.237,8.994-1.262,13.254,2.446-3.945,4.734-7.968,7.258-11.913,1.5-2.051,3.156-4.5,5.68-5.365a3.283,3.283,0,0,1,4.024,2.051c1.183,3.392.473,7.021,0,10.414,2.288-4.181,4.024-8.994,7.968-11.913,2.051-1.5,5.838-1.815,6.943,1.026,1.262,4.734-1.815,9.625-.158,14.359a2.844,2.844,0,0,0,3.629,1.736c3.708-.868,6.785-3.313,9.546-5.759.947-.947,2.288-1.814,2.446-3.235a51.1,51.1,0,0,0,.473-10.966c1.657-.237,3.471-.947,5.128-.316a2.612,2.612,0,0,1,1.262,2.367c0,4.26-1.341,8.441-.947,12.7a2.069,2.069,0,0,0,2.6,2.13c2.13-.71,3.708-2.525,5.128-4.181.473-.631,1.183-1.262,1.183-2.13a52.179,52.179,0,0,0,.789-11.6c1.42-.158,3-.473,4.339.158a3.713,3.713,0,0,1,1.736,2.919c.316,4.5-1.657,8.915-.868,13.412.158,1.026.71,2.446,2.051,2.13a12.721,12.721,0,0,0,3.392-2.761,56.957,56.957,0,0,0,8.126-12.544,5.6,5.6,0,0,0,1.1.789c-.631,2.761-2.209,5.207-3.629,7.574-2.209,3.314-4.734,6.706-8.2,8.757-2.051,1.262-4.97,1.578-6.943,0-1.578-1.341-1.893-3.471-2.13-5.365-1.972,2.682-3.866,5.6-6.943,7.179-1.893.947-4.5,1.341-6.233-.237-1.578-1.42-1.815-3.708-1.815-5.68-4.26,4.26-9.7,7.968-15.936,8.442a4.725,4.725,0,0,1-5.128-3c-1.341-4.1.394-8.363.789-12.465.079-.71,0-1.893-.947-1.893a5.285,5.285,0,0,0-2.367,2.367c-2.367,3.787-4.024,7.968-6.232,11.755a7.805,7.805,0,0,1-1.972,2.525c-1.341.552-2.682-.394-3.708-1.262,1.026-4.339,1.972-8.678,1.736-13.1a3.312,3.312,0,0,0-.71-2.288c-1.1-.079-1.578,1.1-2.13,1.815-2.682,4.418-4.655,9.309-7.731,13.57a9.757,9.757,0,0,1-4.181,3.629,5.231,5.231,0,0,1-4.655-1.026c.473-3.156,1.026-6.311,1.42-9.467-3.314,3.471-8.678,6.627-13.491,4.418a14.518,14.518,0,0,1-7.021,7.81c-3.392,1.578-7.889,1.657-10.729-1.026a10.939,10.939,0,0,1-1.42-13.1C141.241,292.385,142.819,291.754,144.318,291.044Zm1.578.079c2.288.789,2.446,3.55,1.893,5.6-2.761,1.815-3.392,5.759-2.13,8.678a3.054,3.054,0,0,0,3.787,1.736c1.815-.631,2.84-2.446,3.629-4.181a20.1,20.1,0,0,0,.947-12.544c-.473-1.736-1.815-3.708-3.866-3.313C148.184,287.652,146.921,289.545,145.9,291.123Z" transform="translate(-139.152 -279.621)" fill="#010101"/>
        </g>
      </g>
      <g id="Group_1660" data-name="Group 1660" transform="translate(26.072 4.207)">
        <g id="Group_1656" data-name="Group 1656" transform="translate(28.745)">
          <path id="Path_1727" data-name="Path 1727" d="M127.321,242.084a2.455,2.455,0,0,1,2.209.552,6.228,6.228,0,0,1,1.578,4.655,39.254,39.254,0,0,1-.316,8.6,6.281,6.281,0,0,1-1.42,3.313,2.724,2.724,0,0,1-3.313.237c-1.1-.71-1.42-2.051-1.657-3.314a42.405,42.405,0,0,1-.316-8.363,8.786,8.786,0,0,1,1.1-4.26A3.561,3.561,0,0,1,127.321,242.084Zm.158,1.42a1.49,1.49,0,0,0-1.026,1.026,5.011,5.011,0,0,0-.394,1.815,36.334,36.334,0,0,0,.079,9.7,5.725,5.725,0,0,0,.789,2.209.889.889,0,0,0,1.262.158,3.607,3.607,0,0,0,.71-1.578,24.081,24.081,0,0,0,.473-4.734,49.4,49.4,0,0,0-.158-5.917,3.7,3.7,0,0,0-.631-2.051A.9.9,0,0,0,127.479,243.5Z" transform="translate(-124.036 -242.027)" fill="#010101"/>
        </g>
        <g id="Group_1657" data-name="Group 1657" transform="translate(0 0.216)">
          <path id="Path_1728" data-name="Path 1728" d="M87.916,242.616a1.418,1.418,0,0,1,.71-.316c1.183,0,2.446,0,3.708.079.316,0,.71.237.71.552-.079.237-.158.552-.237.789-1.1.079-2.288.079-3.392.079,0,1.972-.079,3.866-.079,5.838,1.262,0,2.761-.237,3.787.631,1.1.71,1.341,2.209,1.341,3.392a11.252,11.252,0,0,1-.552,4.576,2.447,2.447,0,0,1-2.367,1.42H88.231c-.473,0-.552-.631-.631-1.026,0-4.812.079-9.625.079-14.516C87.837,243.8,87.758,243.168,87.916,242.616Zm1.42,8.442c-.079,2.446-.079,4.97-.079,7.416.789,0,1.578.079,2.367,0,1.1-.316,1.42-1.578,1.42-2.6a8.271,8.271,0,0,0-.473-3.945C91.86,250.742,90.44,251.057,89.336,251.057Z" transform="translate(-87.6 -242.3)" fill="#010101"/>
        </g>
        <g id="Group_1658" data-name="Group 1658" transform="translate(8.577 0.181)">
          <path id="Path_1729" data-name="Path 1729" d="M104.332,242.527a2.682,2.682,0,0,1,2.761.237,5.213,5.213,0,0,1,1.657,3.629,58.15,58.15,0,0,1,0,7.416,11.128,11.128,0,0,1-1.262,5.049,2.736,2.736,0,0,1-4.418-.158,5.273,5.273,0,0,1-.789-2.446c-.158-1.1-.316-2.288-.394-3.471h-1.815v5.286a2.889,2.889,0,0,1-.316,1.42.84.84,0,0,1-1.1,0,1.422,1.422,0,0,1-.158-.789v-6.075c.079-3.235-.079-6.548,0-9.783,0-.473.473-.473.789-.394.316,0,.868.158.789.631,0,2.84,0,5.6-.079,8.441h1.815c.079-2.209-.158-4.418.552-6.548A3.827,3.827,0,0,1,104.332,242.527Zm.473,1.262a4.87,4.87,0,0,0-1.1,2.6,36.925,36.925,0,0,0,.079,9.783,5.379,5.379,0,0,0,.789,2.13.891.891,0,0,0,1.183.316,3.867,3.867,0,0,0,.868-1.578c.71-2.84.473-5.838.473-8.757-.079-1.341.079-2.919-.789-4.024A1.043,1.043,0,0,0,104.805,243.79Z" transform="translate(-98.471 -242.256)" fill="#010101"/>
        </g>
        <g id="Group_1659" data-name="Group 1659" transform="translate(20.556 0.275)">
          <path id="Path_1730" data-name="Path 1730" d="M114.006,243.42a2.316,2.316,0,0,1,1.815-.947,6.164,6.164,0,0,1,3.156.237,2.677,2.677,0,0,1,1.42,2.525,25.568,25.568,0,0,1-.394,6,3.567,3.567,0,0,1-1.578,1.972,9.147,9.147,0,0,1-2.919.237c-.158,1.815-.158,3.708-.158,5.6a1.155,1.155,0,0,1-1.657.868,15.163,15.163,0,0,1,0-1.893c0-4.339.079-8.6.079-12.938C113.848,244.525,113.691,243.894,114.006,243.42Zm1.578.631c-.158,2.682-.158,5.286-.079,7.968a12.743,12.743,0,0,0,1.736,0,2.231,2.231,0,0,0,1.5-2.13c.079-1.1.079-2.288.079-3.471-.079-.868-.079-2.051-.947-2.446A2.573,2.573,0,0,0,115.584,244.051Z" transform="translate(-113.656 -242.375)" fill="#010101"/>
        </g>
      </g>
    </g>
    <g id="Group_1664" data-name="Group 1664" transform="translate(25.362)">
      <g id="Group_1662" data-name="Group 1662" transform="translate(1.105 0.723)">
        <path id="Path_1731" data-name="Path 1731" d="M220.087,130.966l-.079-.079.079-.237a26.9,26.9,0,0,0-6.075-17.041h0a13.563,13.563,0,0,0,.237-2.682c-.316-6.706-4.655-8.757-4.655-8.757,3.629-1.42,5.286-.947,5.286-.947a12.435,12.435,0,0,0-6.469-4.5h0s.631-9.546-2.525-9.073c-2.367.394-1.026,8.52-1.026,8.52h0a18.518,18.518,0,0,0-2.919.079l-2.209-9.467a.9.9,0,0,0-1.657-.158L193.9,96.806a7.607,7.607,0,0,0-7.258,0h0c1.183-4.26,1.815-8.678,0-9.546-2.367-1.183-4.812,4.576-6.154,10.729l-5.049-2.051c.237-2.919.552-5.128.868-7.1,13.412-9.625,3.866-44.338-23.194-44.338-21.222,0-35.107,23.983-31,44.969h0a31.172,31.172,0,0,0,1.262,4.655h0a35.116,35.116,0,0,0,3.392,7.179l-3.55,3.156-1.815-1.026a81.18,81.18,0,0,1-5.6-20.2c-.552-3.866-5.917-.158-5.128,7.574a48.7,48.7,0,0,0,3.156,13.175,27.29,27.29,0,0,0-5.049,1.026h-.079c-4.418-10.808-4.97-16.173-5.522-20.039s-5.917-.158-5.128,7.574a69.176,69.176,0,0,0,3.866,15.621A26.829,26.829,0,0,0,89.6,130.73v.631a14.71,14.71,0,0,0-.789,1.578v.079a1.14,1.14,0,0,0-.158.552v.079a12.609,12.609,0,0,0-.394,1.657v.079c0,.158-.079.316-.079.552v.158a11.651,11.651,0,0,0-.079,1.657v1.5a2.8,2.8,0,0,0,.158.789v.237c0,.158.079.237.079.394,0,.079.079.237.079.316,0,.158.079.237.079.394,0,.079.079.237.079.316s.079.237.079.316c.079.158.158.394.237.552,0,.079.079.158.158.316a1.333,1.333,0,0,1,.158.394c.079.079.079.158.158.237.079.158.158.237.237.394.079.079.079.158.158.237a1.651,1.651,0,0,0,.316.473c0,.079.079.079.079.158.158.158.237.394.394.552.079.079.079.158.158.158.079.158.237.237.316.394.079.079.079.158.158.158.079.158.237.237.316.394l.158.158a3.431,3.431,0,0,0,.552.473c.079,0,.079.079.158.079.158.158.316.237.473.394.079.079.158.079.158.158a1.721,1.721,0,0,1,.394.316c.079.079.158.079.158.158.237.158.394.237.631.394h0a1.934,1.934,0,0,0,.71,2.525c1.657,1.183,12.86,8.6,12.86,8.6l-.237.789s-10.729-5.049-12.307-5.68-2.761,1.815-.394,3.077c2.367,1.183,11.755,6.154,11.755,6.154l-.316,1.262s-8.047-2.682-9.388-3.077c-1.578-.473-3,1.736-.473,2.84,11.439,4.97,14.674,8.994,31.084,10.1a7.626,7.626,0,0,1,.631-2.13,13.656,13.656,0,0,0-.631,2.13,45.216,45.216,0,0,0,7.495,0c.473,4.339,9.073,9.546,20.354,9.546,11.2,0,19.723-4.891,20.354-9.546h.158a36.409,36.409,0,0,0,6.706,0h0c16.41-1.026,19.644-5.128,31.084-10.1,2.6-1.1,1.1-3.313-.473-2.84-1.341.394-9.388,3.077-9.388,3.077l-.316-1.262s9.388-4.891,11.755-6.154c2.367-1.183,1.183-3.629-.394-3.077-1.578.631-12.307,5.68-12.307,5.68l-.237-.789s11.2-7.337,12.859-8.6a2.012,2.012,0,0,0,.789-2.367l.237-.158a12.5,12.5,0,0,0,6-12.386h0C225.452,133.1,223.48,128.363,220.087,130.966Z" transform="translate(-88.1 -44.5)" fill="#fff"/>
      </g>
      <g id="Group_1663" data-name="Group 1663">
        <path id="Path_1732" data-name="Path 1732" d="M170.61,131.125a7.629,7.629,0,0,0,7.81-5.759c-2.367.473-3.55-2.209-5.917-1.972a2.74,2.74,0,0,0-1.893,1.341,2.739,2.739,0,0,0-1.893-1.341c-2.367-.316-3.55,2.446-5.917,1.972A7.629,7.629,0,0,0,170.61,131.125Zm-2.761-4.576h5.522c.947,0,.079,1.1-2.761,1.1S166.981,126.549,167.849,126.549Z" transform="translate(-102.763 -60.424)" fill="#1d1c1a"/>
        <path id="Path_1733" data-name="Path 1733" d="M180.553,100.5h0a29.064,29.064,0,0,0,2.761-1.183,19,19,0,0,1,2.6-1.183c.394-.158.789-.237,1.262-.394a3.4,3.4,0,0,1,1.262,0,13.37,13.37,0,0,1,2.761.789h0a.474.474,0,0,0,.316-.079.358.358,0,0,0,0-.394,7.533,7.533,0,0,0-1.262-.947,3.2,3.2,0,0,0-.71-.394,8.185,8.185,0,0,0-.789-.316A6.193,6.193,0,0,0,187.022,96a9.826,9.826,0,0,0-4.812,1.026,17.84,17.84,0,0,0-2.761,1.341,1.138,1.138,0,0,0-.473,1.42A1.384,1.384,0,0,0,180.553,100.5Z" transform="translate(-106.157 -54.647)" fill="#1d1c1a"/>
        <path id="Path_1734" data-name="Path 1734" d="M187.308,102.889a6.174,6.174,0,0,0-2.682-.394,6.24,6.24,0,0,0-2.682.789,5.9,5.9,0,0,0-1.972,1.972.792.792,0,0,0,1.183,1.026h0a7.533,7.533,0,0,1,1.262-.947,2.288,2.288,0,1,0,4.576,0c0-.158-.079-.237-.079-.394a17.134,17.134,0,0,1,1.893.552h0a.89.89,0,0,0,.868-.237.78.78,0,0,0-.158-1.1A6.015,6.015,0,0,0,187.308,102.889Z" transform="translate(-106.364 -56.013)" fill="#1d1c1a"/>
        <path id="Path_1735" data-name="Path 1735" d="M132.988,145.776a2.288,2.288,0,1,0-2.288-2.288A2.29,2.29,0,0,0,132.988,145.776Z" transform="translate(-95.987 -64.187)" fill="#1d1c1a"/>
        <path id="Path_1736" data-name="Path 1736" d="M95.209,145.207c.868.237,1.893-.552,2.288-1.736.394-1.262-.079-2.446-.947-2.682s-1.893.552-2.288,1.736S94.341,144.97,95.209,145.207Z" transform="translate(-88.267 -64.092)" fill="#1d1c1a"/>
        <path id="Path_1737" data-name="Path 1737" d="M195.867,192.588a2.2,2.2,0,0,0-1.972,2.288,2.128,2.128,0,0,0,2.6,1.5,2.2,2.2,0,0,0,1.972-2.288A2.129,2.129,0,0,0,195.867,192.588Z" transform="translate(-109.322 -75.024)" fill="#1d1c1a"/>
        <path id="Path_1738" data-name="Path 1738" d="M149,192.588a2.128,2.128,0,0,0-2.6,1.5,2.2,2.2,0,0,0,1.972,2.288,2.129,2.129,0,0,0,2.6-1.5A2.2,2.2,0,0,0,149,192.588Z" transform="translate(-99.296 -75.024)" fill="#1d1c1a"/>
        <path id="Path_1739" data-name="Path 1739" d="M174.952,110.141a.455.455,0,0,0,.473-.473,16.45,16.45,0,0,1,1.183-6.075.529.529,0,0,0-.947-.473,17.268,17.268,0,0,0-1.262,6.469C174.479,109.983,174.716,110.141,174.952,110.141Z" transform="translate(-105.211 -56.086)" fill="#1d1c1a"/>
        <path id="Path_1740" data-name="Path 1740" d="M169.178,119.9a6.723,6.723,0,0,0,2.6.552,8.406,8.406,0,0,0,2.84-.552.777.777,0,0,0-.631-1.42,5.554,5.554,0,0,1-4.181,0,.81.81,0,0,0-1.026.394A.783.783,0,0,0,169.178,119.9Z" transform="translate(-104.013 -59.38)" fill="#1d1c1a"/>
        <path id="Path_1741" data-name="Path 1741" d="M180.2,210.766a.735.735,0,0,0-.947.473c-.71,2.209-3,2.367-4.26,2.288a7.754,7.754,0,0,1-3.392-1.1c1.972-.316,3.392-1.42,3.392-2.682,0-1.657-2.051-2.84-4.812-2.84s-4.812,1.183-4.812,2.84c0,1.341,1.42,2.367,3.392,2.682a6.851,6.851,0,0,1-3.392,1.1c-1.262.079-3.471-.079-4.26-2.288a.748.748,0,0,0-1.42.473,4.956,4.956,0,0,0,5.049,3.313,8.694,8.694,0,0,0,1.42-.158,7.576,7.576,0,0,0,3.945-1.736,7.575,7.575,0,0,0,3.945,1.736,8.692,8.692,0,0,0,1.42.158c2.525,0,4.339-1.183,5.049-3.313A.584.584,0,0,0,180.2,210.766Zm-13.254-1.1c0-.552,1.341-1.341,3.235-1.341s3.235.789,3.235,1.341S172.152,211,170.18,211h0C168.286,211,166.945,210.213,166.945,209.661Z" transform="translate(-102.095 -78.055)" fill="#1d1c1a"/>
        <path id="Path_1742" data-name="Path 1742" d="M201.035,167.917c.158.079.237.158.394.158a.974.974,0,0,0,.631-.316.7.7,0,0,0-.237-1.026,15.856,15.856,0,0,1-5.917-7.574.748.748,0,1,0-1.42.473A16.733,16.733,0,0,0,201.035,167.917Z" transform="translate(-109.44 -67.868)" fill="#1d1c1a"/>
        <path id="Path_1743" data-name="Path 1743" d="M148.37,158.587a.707.707,0,0,0-.947.473,15.857,15.857,0,0,1-5.917,7.574.768.768,0,0,0-.237,1.026.718.718,0,0,0,.631.316c.158,0,.316,0,.394-.158a17.69,17.69,0,0,0,6.469-8.363A.638.638,0,0,0,148.37,158.587Z" transform="translate(-98.194 -67.847)" fill="#1d1c1a"/>
        <path id="Path_1744" data-name="Path 1744" d="M211.588,141.1a2.288,2.288,0,1,0,2.288,2.288A2.29,2.29,0,0,0,211.588,141.1Z" transform="translate(-112.578 -64.166)" fill="#1d1c1a"/>
        <path id="Path_1745" data-name="Path 1745" d="M249.65,145.206c.868-.237,1.341-1.5.947-2.682-.394-1.262-1.42-1.972-2.288-1.736s-1.341,1.5-.947,2.682A2.089,2.089,0,0,0,249.65,145.206Z" transform="translate(-120.582 -64.091)" fill="#1d1c1a"/>
        <path id="Path_1746" data-name="Path 1746" d="M101.748,163.324h.158a.758.758,0,0,0,.71-.552,15.882,15.882,0,0,1,2.367-5.049h.158a25.891,25.891,0,0,0,5.049,5.286.734.734,0,1,0,.868-1.183,21.81,21.81,0,0,1-4.418-4.576,2.634,2.634,0,0,0,1.42-2.288,2.977,2.977,0,0,0-3.077-2.761,2.926,2.926,0,0,0-3.077,2.761,2.67,2.67,0,0,0,1.578,2.367,17.516,17.516,0,0,0-2.288,5.049A.771.771,0,0,0,101.748,163.324Zm3.235-9.546c.868,0,1.578.552,1.578,1.183,0,.71-.71,1.183-1.578,1.183s-1.578-.552-1.578-1.183S104.115,153.778,104.983,153.778Z" transform="translate(-89.757 -66.509)" fill="#1d1c1a"/>
        <path id="Path_1747" data-name="Path 1747" d="M123.178,114.011a.29.29,0,0,0,.237-.079.735.735,0,0,0,.473-.947,56.914,56.914,0,0,1-1.972-7.337.727.727,0,1,0-1.42.316,59.75,59.75,0,0,0,2.051,7.574C122.547,113.853,122.863,114.011,123.178,114.011Z" transform="translate(-93.83 -56.564)" fill="#1d1c1a"/>
        <path id="Path_1748" data-name="Path 1748" d="M107.278,117.311a.29.29,0,0,0,.237-.079.735.735,0,0,0,.473-.947,56.915,56.915,0,0,1-1.972-7.337.727.727,0,0,0-1.42.316,59.742,59.742,0,0,0,2.051,7.574A.6.6,0,0,0,107.278,117.311Z" transform="translate(-90.474 -57.26)" fill="#1d1c1a"/>
        <path id="Path_1749" data-name="Path 1749" d="M222.4,136.926v-.789c2.051-1.893,2.288-4.5,1.183-5.917a2.567,2.567,0,0,0-3.077-.71,27.349,27.349,0,0,0-6-16.173,12.754,12.754,0,0,0,.158-2.525c-.237-4.734-2.288-7.337-3.787-8.52a6.6,6.6,0,0,1,3.392-.394l1.893.552-1.1-1.657a12.28,12.28,0,0,0-6.311-4.576c.079-1.893.079-7.1-1.657-8.757a2.034,2.034,0,0,0-1.736-.552,1.843,1.843,0,0,0-1.262.789c-1.183,1.657-.868,5.759-.631,7.653a8.575,8.575,0,0,0-1.42.079l-2.051-8.836a1.61,1.61,0,0,0-3.077-.237l-3.945,9.388a8.171,8.171,0,0,0-5.68-.316c.947-4.1,1.183-7.889-.789-8.915a2.208,2.208,0,0,0-2.288.158c-2.051,1.341-3.866,6-4.891,10.887l-3.55-1.5c.237-2.84.552-5.049.789-7.021a14.991,14.991,0,0,0,2.919-3,19.336,19.336,0,0,0,2.051-4.024,23.693,23.693,0,0,0,1.1-8.757,32.879,32.879,0,0,0-5.522-16.41,30.747,30.747,0,0,0-5.838-6.548,26.923,26.923,0,0,0-7.495-4.576,28.775,28.775,0,0,0-17.277-1.42,27.8,27.8,0,0,0-8.126,3.235,32.584,32.584,0,0,0-6.864,5.444,39.909,39.909,0,0,0-8.994,14.832,42.423,42.423,0,0,0-2.209,17.2,40.4,40.4,0,0,0,1.657,8.6,38.125,38.125,0,0,0,3.629,7.968h0l-3.077,2.051c-.237-.079-.473-.079-.71-.158-4.339-10.651-5.286-17.12-5.759-20.591-.237-1.815-1.341-2.288-2.288-2.209-2.13.237-4.891,3.945-4.339,9.94a52.324,52.324,0,0,0,2.84,12.465,19.124,19.124,0,0,0-3.55.789,69.755,69.755,0,0,1-5.128-18.461l-.079-.789c-.237-1.815-1.341-2.288-2.288-2.209-2.13.237-4.891,3.945-4.339,9.94a66.507,66.507,0,0,0,3.708,15.226,27.69,27.69,0,0,0-12.149,22.879v.473h0a6.994,6.994,0,0,0-.631,1.341c-.079.079-.079.237-.158.316-.158.316-.237.71-.394,1.026-.079.158-.079.394-.158.552-.079.316-.158.631-.237,1.026,0,.158-.079.316-.079.473a9.059,9.059,0,0,0-.079,1.5v.552a5.208,5.208,0,0,0,.079,1.1c0,.237.079.473.079.631.079.316.079.552.158.868.079.473.237.868.316,1.341l.237.71c.079.237.237.473.316.71s.237.473.316.71.237.394.316.631a6.582,6.582,0,0,0,.631.947.41.41,0,0,1,.158.316l.947,1.183a1.089,1.089,0,0,0,.316.237,7.858,7.858,0,0,0,.868.789c.079.079.237.158.316.237l.71.473a2.94,2.94,0,0,0,1.183,2.84c1.026.71,5.365,3.629,8.757,5.838-3.156-1.42-6.864-3.156-7.731-3.55a2,2,0,0,0-2.6,1.026c-.473,1.026-.158,2.525,1.578,3.392,1.893.947,8.126,4.26,10.651,5.522-2.367-.789-7.021-2.288-8.047-2.6a2.24,2.24,0,0,0-2.761,1.341c-.316.868,0,2.13,1.736,2.919,2.919,1.262,5.207,2.446,7.416,3.55,6.311,3.156,11.282,5.68,23.037,6.548h0l.868.079h0a40.77,40.77,0,0,0,4.1.158c1.262,0,2.209-.079,2.761-.079,1.341,4.576,10.1,9.467,20.907,9.467,11.2,0,19.565-4.734,20.907-9.467a20.134,20.134,0,0,0,2.525.079c.868,0,1.893,0,3-.079h0l.631-.079h.237c12.307-.789,17.356-3.392,23.747-6.627,2.209-1.1,4.576-2.288,7.416-3.55,1.815-.789,2.051-2.051,1.736-2.919a2.24,2.24,0,0,0-2.761-1.341c-1.026.316-5.68,1.815-8.047,2.6,2.525-1.341,8.836-4.576,10.651-5.522a2.672,2.672,0,0,0,1.578-3.392,1.972,1.972,0,0,0-2.6-1.026c-.947.316-4.655,2.051-7.731,3.55,3.392-2.209,7.731-5.128,8.757-5.838a3.033,3.033,0,0,0,1.262-2.682,7.149,7.149,0,0,0,1.262-.868,3.434,3.434,0,0,1,.552-.473,4.135,4.135,0,0,0,.868-.789,2.126,2.126,0,0,1,.552-.631,5.53,5.53,0,0,0,.631-.789c.158-.237.316-.552.473-.789a8.6,8.6,0,0,0,.473-.868,9.256,9.256,0,0,1,.394-.868c.079-.316.237-.552.316-.868l.237-.947c.079-.316.158-.631.237-.868a4.168,4.168,0,0,0,.079-1.026c0-.316.079-.631.079-.947C222.474,137.558,222.474,137.242,222.4,136.926Zm0-5.759c.631.789.552,2.6-1.262,4.024l-.316.237.079.394a11.64,11.64,0,0,1-5.365,11.439,2.511,2.511,0,0,0-2.761.158c-1.262.71-4.812,2.919-7.968,4.891,2.446-1.972,4.97-4.024,5.522-4.418a2.393,2.393,0,0,0,.71-3,1.89,1.89,0,0,0-2.446-.868,52.093,52.093,0,0,0-8.2,4.576,11.962,11.962,0,0,1-8.915-3.313c-1.972-2.13-2.682-5.128-2.051-8.836.868-4.891,4.418-7.495,7.179-8.915,5.68-2.761,13.491-2.761,18.619.079a10.464,10.464,0,0,1,3.866,3.55l.473.71.631-.473C220.66,131.01,221.764,130.378,222.4,131.167Zm-16.962-42.76c.079-.158.158-.158.237-.158a.58.58,0,0,1,.473.158c1.026.947,1.262,4.576,1.183,7.258a18.6,18.6,0,0,0-2.209-.316C204.881,92.983,204.723,89.433,205.434,88.407Zm7.495,11.834a12.913,12.913,0,0,0-3.629.947c-.237-.079-.394-.158-.631-.237l-.947-.237h-.947a2.1,2.1,0,0,0-.947.237.077.077,0,0,0-.079.079c0,.079,0,.158.079.158h0a4.228,4.228,0,0,0,.868.394,7.331,7.331,0,0,1,.789.394,2.8,2.8,0,0,1,.71.316l.789.394s3.945,1.972,4.26,8.126a8.606,8.606,0,0,1-3.55,7.653,18.967,18.967,0,0,0-4.418-10.493l-1.578-6.785-1.026-4.5A13.5,13.5,0,0,1,212.928,100.241ZM198.491,86.751a.079.079,0,1,1,.158,0l2.051,8.678h0l2.367,10.177.552,2.367c-.947.473-3.866,1.341-9.467-.394a.748.748,0,1,0-.473,1.42,22.523,22.523,0,0,0,6.39,1.1,10.061,10.061,0,0,0,4.181-.789,16.571,16.571,0,0,1,3.787,10.414l-.079,1.262,1.183-.552a10.314,10.314,0,0,0,4.891-5.365,25.952,25.952,0,0,1,4.891,13.412,10.556,10.556,0,0,0-3-2.209c-5.444-3-13.885-3-19.96-.079-4.5,2.209-7.258,5.6-8.047,10.019q-1.065,6.39,2.367,10.177a13.116,13.116,0,0,0,7.81,3.708c-.789.552-1.657,1.1-2.525,1.657a57.19,57.19,0,0,1-9.073,5.207,33.545,33.545,0,0,0-.868-6,5.779,5.779,0,0,0-2.761-3.945,1.089,1.089,0,0,0,.237-.316,2.917,2.917,0,0,0,.394-.868c.079-.079.079-.237.158-.316a6.331,6.331,0,0,0,.316-1.42v-.079c.789-4.891-2.209-8.836-5.522-12.307a7.112,7.112,0,0,0-.789-.71,1.09,1.09,0,0,0-.316-.237,3.341,3.341,0,0,0-.552-.394c-.158-.079-.237-.158-.395-.237l-.473-.237a5.991,5.991,0,0,0-.868-.316c-.079,0-.158-.079-.316-.079a1.343,1.343,0,0,0-.552-.079c-.079,0-.237-.079-.316-.079H172.22c-.237.079-.473.079-.71.158a.41.41,0,0,0-.316.158c-.158.079-.316.079-.394.158-.079,0-.079.079-.158.079-.079.079-.158.079-.237.158-.237.158-.394.237-.631.394-.079,0-.079.079-.158.079a4.761,4.761,0,0,0-.631.631h0c-.789-.473-1.578-.868-2.367-1.262a26.168,26.168,0,0,1,15.936-23.589,67.167,67.167,0,0,1-.079,7.81l-.158,1.736,1.341-1.026a24.653,24.653,0,0,0,7.021-9.783l1.893-4.5h0l1.815-4.26h0ZM175.3,170.693a.275.275,0,0,0-.079-.158l-.237-.473a4.336,4.336,0,0,0-.552-.71c-.079-.079-.158-.237-.237-.316a.275.275,0,0,0-.158-.079,12.144,12.144,0,0,0-1.026-.947c-.158-.158-.395-.316-.552-.473a6.945,6.945,0,0,0-.789-.473,8.993,8.993,0,0,0-1.5-.789c-.158-.079-.237-.158-.394-.158a33.169,33.169,0,0,0-9.625-2.288,6.787,6.787,0,0,0-1.262-.079c-.394,0-.71-.079-1.1-.079-1.026-.079-1.972-.079-3-.079s-2.051,0-3,.079h-.316c-6.311.394-11.361,1.893-14.437,4.26l-.079.079a5.309,5.309,0,0,0-1.183,1.1l-.158.158c-.079.079-.079.079-.079.158a8.934,8.934,0,0,0-.789,1.026c-.079.079-.079.158-.158.237-.079.237-.237.394-.316.631a25.979,25.979,0,0,1-5.838-16.489,26.94,26.94,0,0,1,.868-6.706,9.73,9.73,0,0,0,2.761-1.183.744.744,0,0,0-.789-1.262,5.921,5.921,0,0,1-2.84,1.026h0a1.14,1.14,0,0,1-.552-.158.077.077,0,0,1-.079-.079c-.079-.079-.237-.158-.316-.237l-.158-.158a.41.41,0,0,1-.158-.316c-.079-.079-.079-.158-.158-.237a1.121,1.121,0,0,1-.158-.473c0-.079-.079-.158-.079-.237a2.836,2.836,0,0,1-.158-.868v-.158a9.334,9.334,0,0,1,1.815-6.943,20.23,20.23,0,0,1,2.051-2.682c.394-.473.789-.947,1.262-1.42a9.456,9.456,0,0,1,.947-.868c.079,0,.079-.079.158-.079a5.172,5.172,0,0,1,2.209-.868h.158a2.6,2.6,0,0,1,1.1,0h.079a2.3,2.3,0,0,1,.71.158c.079,0,.079.079.158.079a1.723,1.723,0,0,1,.394.237,3.291,3.291,0,0,1,.631.473l.237.237a3.5,3.5,0,0,1,.631.868h0a4.624,4.624,0,0,1,.237,2.6.759.759,0,1,0,1.5.237,6.223,6.223,0,0,0-.237-3,18.694,18.694,0,0,1,2.761-1.5c.789-.394,1.578-.631,2.367-.947.237-.079.395-.158.631-.237.71-.237,1.5-.473,2.209-.631.158,0,.237-.079.394-.079a23.127,23.127,0,0,1,2.288-.394c.237,0,.473-.079.71-.079.868-.079,1.657-.158,2.525-.158a25.776,25.776,0,0,1,13.806,3.945,6.462,6.462,0,0,0-.237,3.077.759.759,0,1,0,1.5-.237,4.075,4.075,0,0,1,.316-2.6h0a3.5,3.5,0,0,1,.631-.868l.237-.237a4.377,4.377,0,0,1,.631-.473c.158-.079.237-.158.394-.237.079,0,.079-.079.158-.079a2.3,2.3,0,0,1,.71-.158h.079a2.6,2.6,0,0,1,1.1,0h.158a4.813,4.813,0,0,1,2.209.868c.079,0,.079.079.158.079a4.953,4.953,0,0,1,.947.868h0c3.471,3.708,5.68,7.021,5.128,11.045-.079.394-.158.71-.237,1.026,0,.079-.079.079-.079.158a3.841,3.841,0,0,1-.237.552.275.275,0,0,1-.079.158c-.079.158-.158.237-.237.394,0,.079-.079.079-.079.158a1.384,1.384,0,0,1-.394.316,1.486,1.486,0,0,1-.631.158h0a5.921,5.921,0,0,1-2.84-1.026.744.744,0,0,0-.789,1.262,10.244,10.244,0,0,0,2.84,1.183,27.929,27.929,0,0,1,.868,6.706A24.961,24.961,0,0,1,175.3,170.693ZM139.164,92.668a.663.663,0,0,0,.868.316h0a17.135,17.135,0,0,1,1.893-.552c0,.158-.079.237-.079.394a2.288,2.288,0,0,0,4.576,0,6.585,6.585,0,0,1,1.262.947h0a.827.827,0,0,0,.947.079.7.7,0,0,0,.237-1.026,5.89,5.89,0,0,0-1.972-1.972,5.558,5.558,0,0,0-2.682-.789,5.49,5.49,0,0,0-2.525.394c1.026-.868,1.972-1.736,3-2.6.237.158.473.237.71.394a17.117,17.117,0,0,0,2.761,1.183h0a1.235,1.235,0,0,0,1.42-.473,1.174,1.174,0,0,0-.394-1.657,25.108,25.108,0,0,0-2.525-1.262c1.1-1.1,2.288-2.13,3.392-3.235,3.55-3.55,7.021-7.179,10.256-11.045.789-.947,1.657-1.893,2.446-2.84l.947-1.183.079.079c.631,5.68,6.311,11.282,12.307,11.992a50.948,50.948,0,0,1-.789,8.284.474.474,0,0,1-.079.316v.237a76.129,76.129,0,0,0-.868,8.047,3.236,3.236,0,0,1-.079.868c-.237,3.629-.394,6.785-3.629,10.414-3.313,3.708-9.152,10.177-11.124,12.149a8.46,8.46,0,0,1-11.045,0c-1.972-1.972-7.81-8.442-11.124-12.149-3.156-3.471-3.392-6.627-3.55-10.177a2.184,2.184,0,0,0-.079-.71c1.815-1.341,3.55-2.682,5.286-4.1C139.085,92.825,139.085,92.747,139.164,92.668Zm53.41,4.339-3.156,7.574a21.5,21.5,0,0,1-5.207,7.889,53.968,53.968,0,0,0-.079-7.1,87.26,87.26,0,0,0,2.84-8.284A6.5,6.5,0,0,1,192.574,97.007Zm-7.337-9.23a.737.737,0,0,1,.789-.079c1.183.552.789,4.181-.394,8.6v.079a78.385,78.385,0,0,1-2.761,8.284c-1.026.394-1.972.868-2.919,1.341C179.951,99.768,182.555,89.512,185.237,87.776Zm-8.2-1.1a43.966,43.966,0,0,0,.552-6.864,8.37,8.37,0,0,0,2.682-.473,1.121,1.121,0,0,0,.473.158,17.142,17.142,0,0,1-.552,1.893A14.982,14.982,0,0,1,177.032,86.672Zm-53.016,7.416c2.84-1.972,5.444-4.1,8.126-6.233,2.761-2.288,5.522-4.655,8.2-7.1,2.6-2.525,5.128-5.049,7.574-7.731.631-.631,1.183-1.341,1.815-2.051l1.815-2.051c1.183-1.42,2.288-2.761,3.471-4.181v-.158c-.079-.079-.079-.079-.158,0h0c-1.262,1.262-2.525,2.525-3.787,3.866-1.262,1.262-2.525,2.525-3.866,3.787-2.525,2.525-5.207,4.97-7.889,7.416-2.6,2.446-5.286,4.891-8.047,7.179-1.341,1.183-2.761,2.288-4.181,3.314-1.1.868-2.288,1.736-3.471,2.525-.316-1.026-.552-2.13-.789-3.156,1.183-.947,2.367-1.815,3.55-2.761,1.341-1.026,2.682-2.051,3.945-3.156s2.525-2.288,3.708-3.55,2.288-2.525,3.392-3.787V76.1c0-.079-.079-.079-.158,0h0c-1.341,1.026-2.682,2.051-4.024,3.156-1.341,1.026-2.6,2.051-3.945,3.156-1.262,1.1-2.525,2.209-3.866,3.235-.947.789-1.972,1.5-3,2.209-.158-1.026-.316-1.972-.394-3a40.7,40.7,0,0,1,2.13-16.567,37.871,37.871,0,0,1,8.6-14.28,29.731,29.731,0,0,1,6.548-5.207,26.426,26.426,0,0,1,7.731-3.077,27.774,27.774,0,0,1,16.41,1.341,27.5,27.5,0,0,1,12.623,10.572,32.152,32.152,0,0,1,5.286,15.7,23.815,23.815,0,0,1-.237,4.734A58.173,58.173,0,0,1,164.8,66.554c.158-.158.316-.394.473-.552a48.06,48.06,0,0,0,4.1-6.311v-.158c-.079-.079-.079-.079-.158,0a68.811,68.811,0,0,0-5.049,5.6,11.809,11.809,0,0,0-.868,1.026h0a.077.077,0,0,1-.079.079c-1.262,1.578-2.525,3.156-3.866,4.655-3.235,3.787-6.706,7.416-10.177,10.887-3.55,3.471-7.258,6.785-11.045,9.94C136.245,93.3,134.272,94.8,132.3,96.3A59.226,59.226,0,0,1,126.935,100,24.246,24.246,0,0,1,124.016,94.088Zm-22.011,14.437.552-.316-.237-.552a69.441,69.441,0,0,1-3.866-15.384c-.473-5.207,1.893-8.126,3-8.284.394-.079.552.473.631.868l.079.789c.552,3.787,1.262,8.994,5.207,18.7-1.1.394-2.13.789-3.156,1.262a.7.7,0,0,0-.316,1.026.829.829,0,0,0,.71.394.474.474,0,0,0,.316-.079,25.036,25.036,0,0,1,8.6-2.446l1.026-.079-.394-.947a46.8,46.8,0,0,1-3.077-12.938c-.473-5.207,1.893-8.126,3-8.284.394-.079.552.473.631.868.473,3.471,1.42,9.7,5.522,20.039a14.526,14.526,0,0,0-2.6-.237.751.751,0,1,0-.079,1.5,26.142,26.142,0,0,1,24.93,25.64c-.789.394-1.578.789-2.367,1.262h0a2.4,2.4,0,0,0-.631-.631c-.079-.079-.079-.079-.158-.079a1.718,1.718,0,0,0-.631-.394c-.079-.079-.158-.079-.237-.158a.275.275,0,0,1-.158-.079c-.158-.079-.237-.079-.394-.158s-.237-.079-.394-.158a2.3,2.3,0,0,0-.71-.158c-.079,0-.158,0-.158-.079h-1.578a.711.711,0,0,0-.394.079c-.158,0-.316.079-.552.079-.237.079-.552.158-.789.237-.158.079-.237.079-.394.158l-.473.237a1.089,1.089,0,0,0-.316.237,2.4,2.4,0,0,0-.552.394,1.089,1.089,0,0,1-.316.237c-.237.237-.552.473-.789.71a24.33,24.33,0,0,0-4.26,5.68,11.613,11.613,0,0,0-1.341,4.891,14.584,14.584,0,0,0,.079,1.815,6.871,6.871,0,0,0,.394,1.5.6.6,0,0,0,.158.316,9.257,9.257,0,0,0,.394.868c.079.079.158.158.158.237a5.553,5.553,0,0,0-2.761,3.945,28.134,28.134,0,0,0-.868,6,65.542,65.542,0,0,1-9.073-5.207c-.868-.631-1.736-1.183-2.525-1.657a13.581,13.581,0,0,0,8.126-3.787c2.288-2.525,3.156-5.838,2.446-10.019-.789-4.339-3.55-7.81-8.047-10.019-6.075-2.919-14.516-2.919-19.96.079a13.034,13.034,0,0,0-3.235,2.6A25.89,25.89,0,0,1,102.005,108.525Zm-3.313,39.367c.552.394,3.077,2.446,5.522,4.418-3.156-1.972-6.706-4.1-7.968-4.891a2.5,2.5,0,0,0-2.525-.237,11.289,11.289,0,0,1-1.183-.868c-.158-.079-.237-.237-.394-.316a10.161,10.161,0,0,1-1.262-1.341l-.079-.079a13.894,13.894,0,0,1-1.1-1.815c-.079-.079-.079-.158-.158-.237a9.011,9.011,0,0,1-.71-2.051c-.079-.237-.079-.473-.158-.71s-.079-.473-.158-.71c0-.237-.079-.394-.079-.631,0-.316-.079-.631-.079-.947v-.473a5.208,5.208,0,0,1,.079-1.1,2.836,2.836,0,0,1,.158-.868c0-.158.079-.316.079-.552.079-.316.158-.552.237-.868,0-.079.079-.237.079-.316.079-.316.237-.552.316-.868,0-.079.079-.158.079-.237.158-.316.316-.552.473-.868l.079-.079a10.327,10.327,0,0,1,4.024-3.787c5.049-2.761,12.86-2.761,18.619-.079a12.042,12.042,0,0,1,7.179,8.915c.631,3.629-.079,6.627-2.051,8.757-2.6,2.84-7.021,3.55-9.23,3.392a52.1,52.1,0,0,0-8.2-4.576,1.862,1.862,0,0,0-2.446.868A2.886,2.886,0,0,0,98.692,147.893Zm-2.446,15.936c-.71-.316-1.026-.71-.947-1.026a.706.706,0,0,1,.868-.394c1.341.394,9.23,3,9.309,3.077l.789.237.631-2.682-.552-.237s-9.467-4.891-11.755-6.154c-.868-.394-1.026-1.026-.868-1.42a.439.439,0,0,1,.631-.237c1.578.631,12.149,5.6,12.228,5.68l.789.394.71-2.13-.473-.316c-.079-.079-11.2-7.337-12.86-8.52a1.2,1.2,0,0,1-.552-1.42c.158-.237.71-.079,1.183.158,2.446,1.42,13.491,8.363,13.648,8.363l.71.473.947-1.893-.473-.394c-.394-.316-9.546-7.81-10.729-8.757a.768.768,0,0,1-.237-1.026c.079-.158.237-.316.631-.158,1.815.631,6.548,3.471,12.623,7.495,6.864,4.576,10.256,5.759,10.414,5.838l1.026.316-.079-1.1a28.727,28.727,0,0,1,.868-6.785c.631-2.446,2.051-3.235,2.6-3.077.079,0,.158,0,.158.394v.316a25.383,25.383,0,0,0-.631,6,28.635,28.635,0,0,0,3.235,13.017,11.407,11.407,0,0,0-2.919,3.866,15.093,15.093,0,0,0-.789,2.13c-11.6-.789-16.252-3.156-22.642-6.39C101.611,166.353,99.165,165.091,96.246,163.829Zm78.183,10.729c-.552,4.181-8.757,8.836-19.565,8.836-11.361,0-19.171-5.207-19.565-8.836l.079-1.5a1.857,1.857,0,0,1,.158-.631c0-.079.079-.158.079-.237a2.666,2.666,0,0,1,.473-.947l.079-.079a5.528,5.528,0,0,1,.631-.789c.079-.079.158-.158.158-.237,2.525-2.761,8.047-4.576,14.832-4.97h.316c.947-.079,1.893-.079,2.84-.079s1.893,0,2.84.079h.552c.868.079,1.736.158,2.525.237.158,0,.395.079.552.079a17.079,17.079,0,0,1,1.972.316c.237,0,.395.079.631.079a16.159,16.159,0,0,0,1.893.394c.316.079.631.158.868.237.394.079.71.237,1.026.316.473.158.947.394,1.42.552.158.079.394.158.552.237a10.529,10.529,0,0,1,2.6,1.657c.158.079.237.237.394.316a5.434,5.434,0,0,1,.868,1.026c.079.079.158.158.158.237l.237.473c.079.158.158.394.237.552.079.079.079.237.158.316C174.429,172.98,174.508,173.769,174.429,174.558Zm39.762-24.536c-1.657,1.183-12.7,8.442-12.86,8.52l-.473.316.71,2.13.789-.394c.079-.079,10.729-5.049,12.228-5.68a.439.439,0,0,1,.631.237c.158.394,0,.947-.868,1.42-2.367,1.183-11.755,6.154-11.755,6.154l-.552.237.631,2.682.789-.237c.079,0,8.047-2.682,9.309-3.077a.706.706,0,0,1,.868.394c.079.316-.237.71-.947,1.026-2.919,1.262-5.365,2.525-7.495,3.55-6.39,3.235-11.045,5.6-22.642,6.39a2.008,2.008,0,0,0-.158-.552,11.763,11.763,0,0,0-3.392-5.68,27.538,27.538,0,0,0,2.446-19.013v-.079c-.079-.316.079-.394.158-.394.552-.079,1.972.631,2.6,3.077a27.986,27.986,0,0,1,.868,6.785l-.079,1.1,1.026-.316c.158-.079,3.55-1.183,10.414-5.838,6.075-4.1,10.808-6.864,12.623-7.495.394-.158.552,0,.631.158a.861.861,0,0,1-.237,1.026c-1.262.868-10.335,8.442-10.729,8.757l-.473.394.947,1.893.71-.473c.079-.079,11.2-7.021,13.648-8.363.394-.237.947-.394,1.183-.158A1.273,1.273,0,0,1,214.191,150.023Z" transform="translate(-86.7 -43.583)" fill="#1d1c1a"/>
        <path id="Path_1750" data-name="Path 1750" d="M226.009,152.43c-.473.316-1.893,1.736-.473,4.655a.828.828,0,0,0,.71.394.474.474,0,0,0,.316-.079.7.7,0,0,0,.316-1.026c-.631-1.262-.631-2.288,0-2.761a2.425,2.425,0,0,1,2.919.552.783.783,0,1,0,1.026-1.183A3.771,3.771,0,0,0,226.009,152.43Z" transform="translate(-115.875 -66.423)" fill="#1d1c1a"/>
        <path id="Path_1751" data-name="Path 1751" d="M248.152,163.68a15.523,15.523,0,0,1-11.518,0,.748.748,0,1,0-.473,1.42,18,18,0,0,0,6.548,1.262,14.564,14.564,0,0,0,6.233-1.262.7.7,0,0,0,.316-1.026A.829.829,0,0,0,248.152,163.68Z" transform="translate(-118.137 -68.917)" fill="#1d1c1a"/>
      </g>
    </g>
  </g>
</svg>
