<svg xmlns="http://www.w3.org/2000/svg" width="287.757" height="88.703" viewBox="0 0 287.757 88.703">
  <g id="behappy-logo" transform="translate(0)">
    <g id="Group_1937" data-name="Group 1937">
      <path id="Path_1949" data-name="Path 1949" d="M50.475,294.133a16.6,16.6,0,0,0-9.507,2.912V276.5H32.943v54.7h7.25v-2.5a16.224,16.224,0,0,0,10.41,3.464,15.953,15.953,0,0,0,12.554-5.848c2.7-3.364,4.073-7.794,4.073-13.167a21.208,21.208,0,0,0-4.073-13.233A16.072,16.072,0,0,0,50.475,294.133Zm-7.764,10.3a8.2,8.2,0,0,1,6.731-2.917c3.29,0,5.723,1.1,7.24,3.294,1.4,1.9,2.138,4.786,2.138,8.342,0,3.622-.7,6.406-2.073,8.276l-.01.015a8.323,8.323,0,0,1-7.037,3.344,8.836,8.836,0,0,1-7-2.936c-1.613-1.947-2.5-5.037-2.5-8.7S41.082,306.4,42.711,304.429Z" transform="translate(-32.943 -276.5)" fill="#6c5397"/>
      <path id="Path_1950" data-name="Path 1950" d="M89.579,294.49a17.3,17.3,0,0,0-13.459,5.979,21.442,21.442,0,0,0-4.2,13.359,20.074,20.074,0,0,0,4.209,12.723c3.093,3.737,8.267,5.969,13.839,5.969,6.75,0,12.324-2.992,15.694-8.426l.318-.511-5.969-4.03-.354.492a11.462,11.462,0,0,1-10.076,5.29,8.953,8.953,0,0,1-7.318-3.375,10.773,10.773,0,0,1-2.058-5.444h26.925l.045-.576c.483-6.281-.91-11.487-4.136-15.473C99.953,296.613,95.174,294.49,89.579,294.49Zm0,7.185a8.9,8.9,0,0,1,7.376,3.368,11.262,11.262,0,0,1,1.852,4.16H80.4a10.094,10.094,0,0,1,1.878-4.17A8.944,8.944,0,0,1,89.579,301.675Z" transform="translate(-33.717 -276.857)" fill="#6c5397"/>
      <path id="Path_1951" data-name="Path 1951" d="M162.519,297.579h0c-2.913-2.556-6.691-3.693-11.227-3.381a13.541,13.541,0,0,0-9.275,4.087V276.5h-7.249v54.7h8.023V315.278a34.032,34.032,0,0,1,.442-6.987,7.747,7.747,0,0,1,2.62-4.791,8.155,8.155,0,0,1,4.719-1.73,7.839,7.839,0,0,1,5.643,1.786c2.651,2.272,3.008,6.515,3.008,10.367V331.2h8.089V313.671C167.376,307.979,167.063,301.573,162.519,297.579Z" transform="translate(-34.965 -276.5)" fill="#6c5397"/>
      <path id="Path_1952" data-name="Path 1952" d="M200.253,298.189a16.054,16.054,0,0,0-10.085-3.7c-6.067,0-10.839,1.987-14.592,6.075l-.386.42,4.913,5.38.461-.506a11.379,11.379,0,0,1,9.024-3.732c4.047,0,6.608,1.852,7.118,5.108-.82.122-1.66.241-2.509.362-5.287.75-10.753,1.525-14.432,3.283-4.422,2.146-6.482,5.441-6.482,10.37,0,6.742,4.866,11.272,12.111,11.272,5.415,0,9.167-1.458,12.217-4.82v3.852h7.185V309.827C204.795,304.647,203.267,300.732,200.253,298.189Zm-13.441,27.339c-3.28,0-5.57-1.972-5.57-4.8,0-3.321,4.171-4.606,5.959-5,2.875-.616,6.346-1.248,9.635-1.755,0,2.754-.041,4.954-1.2,6.889l0,.007A9.819,9.819,0,0,1,186.812,325.528Z" transform="translate(-35.729 -276.857)" fill="#6c5397"/>
      <path id="Path_1953" data-name="Path 1953" d="M230.248,294.49a16.518,16.518,0,0,0-10.281,3.5v-2.531h-7.25V347.04h8.025v-17.4a16.236,16.236,0,0,0,9.636,2.878,15.953,15.953,0,0,0,12.554-5.848c2.7-3.364,4.073-7.794,4.073-13.167a21.208,21.208,0,0,0-4.073-13.233A16.072,16.072,0,0,0,230.248,294.49Zm-7.764,10.3a8.2,8.2,0,0,1,6.732-2.917c3.29,0,5.723,1.1,7.24,3.294,1.4,1.9,2.138,4.786,2.138,8.342,0,3.622-.7,6.406-2.073,8.276l-.01.015a8.325,8.325,0,0,1-7.037,3.344,8.836,8.836,0,0,1-7-2.936c-1.613-1.948-2.5-5.037-2.5-8.7S220.856,306.753,222.484,304.786Z" transform="translate(-36.512 -276.857)" fill="#6c5397"/>
      <path id="Path_1954" data-name="Path 1954" d="M271.2,294.49a16.513,16.513,0,0,0-10.281,3.5v-2.531h-7.25V347.04h8.024v-17.4a16.233,16.233,0,0,0,9.635,2.878,15.952,15.952,0,0,0,12.554-5.848c2.7-3.364,4.074-7.794,4.074-13.167a21.206,21.206,0,0,0-4.074-13.233A16.072,16.072,0,0,0,271.2,294.49Zm-7.764,10.3a8.2,8.2,0,0,1,6.732-2.917c3.29,0,5.723,1.1,7.24,3.294,1.4,1.9,2.137,4.786,2.137,8.342,0,3.622-.7,6.406-2.073,8.276l-.01.015a8.321,8.321,0,0,1-7.036,3.344,8.838,8.838,0,0,1-7.005-2.936c-1.613-1.948-2.5-5.037-2.5-8.7S261.806,306.753,263.435,304.786Z" transform="translate(-37.325 -276.857)" fill="#6c5397"/>
      <path id="Path_1955" data-name="Path 1955" d="M317.683,295.478l-9.647,26.094L297.9,295.478h-8.188l14.513,36.51c-1.577,4.279-2.629,6.3-3.624,6.964a4.917,4.917,0,0,1-3.051.474l-1.735-.217v7.849h1.335c2.63,0,5.191-.153,7.594-1.991,2.1-1.528,3.79-4.1,5.314-8.091l15.743-41.5Z" transform="translate(-38.041 -276.877)" fill="#6c5397"/>
    </g>
    <path id="Path_1956" data-name="Path 1956" d="M150.861,348.1l-.443.316a49.538,49.538,0,0,1-8.893,4.995,69.428,69.428,0,0,1-9.936,3.46,50.575,50.575,0,0,1-24.769,0,67.336,67.336,0,0,1-9.917-3.462,49.527,49.527,0,0,1-8.891-4.993l-.442-.316L83.2,354.427l.4.31a54.172,54.172,0,0,0,9.824,5.929,75.877,75.877,0,0,0,11.263,4.092,53.056,53.056,0,0,0,14.529,1.867,52.384,52.384,0,0,0,14.49-1.888,80.925,80.925,0,0,0,11.261-4.073,53.505,53.505,0,0,0,9.864-5.928l.4-.31Z" transform="translate(-33.941 -277.922)" fill="#6c5397"/>
  </g>
</svg>
