<svg xmlns="http://www.w3.org/2000/svg" width="358.909" height="191.724" viewBox="0 0 358.909 191.724">
  <g id="fsk-logo" transform="translate(0.289 0.249)">
    <g id="Group_1472" data-name="Group 1472">
      <g id="Group_1320" data-name="Group 1320">
        <path id="Path_1512" data-name="Path 1512" d="M2399.95,1343.476l9.75-62.839c.521-3.356-.3-6.024-2.318-7.513s-4.8-1.5-7.861-.017l-45.026,21.807-3.609-38.324c-.263-2.783-.74-5.76-3.092-5.884-2.362-.152-3.135,2.788-3.689,5.526l-7.581,37.526-29.131-38.391c-1.854-2.441-3.682-4.542-5.635-3.4s-1.027,3.761.185,6.579l22.033,51.149-25.678,12.438-1.27-27.778c-.132-2.833-.579-5.77-2.892-6.06s-3.472,2.444-4.3,5.158l-11.714,38.454-13.157,6.371-8.3-14.5,4.331-75.609c.218-3.828.338-5.938-1.823-6.174s-2.494,1.85-3.106,5.636l-9.466,58.569-14.532-25.4c-1.845-3.222-3.756-4.594-5.686-4.079s-2.906,2.655-2.906,6.364v73.1l-6,.433-6.185-43.28c-.64-4.488-2.525-5.757-3.994-6.032s-3.685.229-5.9,4.184l-22.732,40.548c-1.654,2.954-1.823,5.758-.463,7.9s3.967,3.183,7.342,2.937l28.547-2.053,8.009,56.07c.481,3.4.828,5.853,3.078,5.693s2.245-2.639,2.245-6.069v-56.655l23.315-1.677-3.939,68.738c-.177,3.063-.149,5.847,2.071,6.245a2.528,2.528,0,0,0,.433.038c1.918,0,2.835-2.447,3.667-5.18l20.424-67.052,32.089,56.078c2.353,4.109,4.814,4.381,6.065,4.177s3.5-1.237,4.438-5.875l12.682-62.778,13.354-.962,13.936,32.355c1.182,2.746,2.577,5.214,4.788,4.648s2.249-3.4,1.968-6.376l-3-31.9,14.019-1.008,12.232,16.121c2.827,3.728,5.417,3.733,6.714,3.407s3.57-1.564,4.289-6.19l2.354-15.181,103.31-8.147s3.831.043,3.774-2.28-3.769-1.678-3.769-1.678Zm-214.683,15.455c-1.823.131-3.191-.276-3.728-1.12s-.324-2.245.574-3.848l22.731-40.548a1.564,1.564,0,1,1,2.547.475l6.143,43.006Zm38.213,39.669-5.439-38.069,5.439-.393Zm127.616-97.654,1.3,13.719-7.961-10.49Zm-3.814-40.5,3.42,36.31-8.706,4.217-2.291-3.02Zm-39.2,2.359,27.4,36.114-1.164,5.772-6.781,3.286Zm25.256,46.748-1.634,8.094-2.6-6.041Zm-40.18-13.439,1.279,27.895-11.468,5.554Zm-11.757,38.6,13.234-6.41,1.04,22.683-19.663,1.418Zm-12.6,18.21-13.855,1,.376-6.574,8.055-3.9ZM2256.254,1331l5.152,9-5.828,2.825Zm-.825-54.658-2.358,41.149-3.347-5.847Zm-6.705,41.5,3.935,6.874-1.15,20.081-2.277,1.1c-1.618.786-3.027.924-3.773.37s-1.011-1.941-.724-3.72Zm-21.295,38.052v-72.818a11.278,11.278,0,0,1,.138-1.927,10.913,10.913,0,0,1,1.077,1.6l16.96,29.637-4.77,29.531c-.542,3.353.261,6.024,2.266,7.516s4.795,1.5,7.853.016l.3-.145-.281,4.89Zm23.7,64.644,3.588-62.649,15.843-1.142Zm21.16-69.471-5.351-9.356,9.622-4.661Zm39.842,63.493c-.418,2.068-1.064,2.7-1.189,2.757-.159-.009-.972-.409-2.02-2.238l-33.578-58.675,20.513-1.479.7,15.292c.13,2.825.579,5.758,2.92,6.072s3.548-2.4,4.418-5.087l5.574-17.256,15.122-1.088Zm-12.335-59.918,5.423-.389-4.764,14.755Zm25.608-5.8-14.625,1.053,8.461-26.19a1.974,1.974,0,1,0-3.756-1.214l-8.955,27.71-6.914.5-1.113-24.275,27.04-13.1,4.788,11.116Zm4.088-.294,3.583-17.74,7.3,16.957Zm4.956-24.536,3.357-16.625,3.007-1.455,12.287,16.189,2.313,24.563-10.862.781ZM2346.2,1351.3l9.581-.69,2.765,29.35Zm13.15-4.907-1.725-18.31,13.265,17.48Zm33.724,15.656c-.31,2.007-.98,2.874-1.356,2.968s-1.376-.351-2.6-1.967l-10.678-14.073,16.854-1.212Zm2.838-18.288-20.323,1.462-18.666-24.6-2.028-21.522,46.35-22.45c1.622-.786,3.042-.922,3.793-.363s1.039,1.953.764,3.735Z" transform="translate(-2177.297 -1241.97)" fill="red" stroke="red" stroke-width="0.5"/>
      </g>
      <g id="Group_1471" data-name="Group 1471" transform="translate(235.527 120.354)">
        <g id="Group_314" data-name="Group 314" transform="translate(0 0)">
          <g id="Group_301" data-name="Group 301" transform="translate(0)">
            <path id="Path_1500" data-name="Path 1500" d="M24.3.008c-.008,1.972,0,3.945-.006,5.917a19.737,19.737,0,0,1,11.129,4.826c5.945,5.456,6.28,16.414.857,22.416-3.124,3.519-7.608,5.151-11.983,5.727q0,1.8,0,3.6a2.238,2.238,0,0,1-2.14,2.326q-3.161,0-6.324,0c0-1.971-.005-3.946.006-5.916A20,20,0,0,1,4.925,34.294c-6.085-5.356-6.57-16.381-1.238-22.515C6.82,8.151,11.392,6.52,15.832,5.925q0-1.8,0-3.6A2.241,2.241,0,0,1,17.974,0C20.082,0,22.191,0,24.3.008m5.963,18.255c-1.241-2.423-3.789-3.5-6.165-4.01q-.01,8.126,0,16.261c2.342-.5,4.854-1.529,6.117-3.88a9.509,9.509,0,0,0,.052-8.37M9.907,18.219a9.33,9.33,0,0,0,.132,8.593c1.29,2.229,3.719,3.184,5.976,3.714.046-5.424,0-10.849.02-16.273C13.68,14.76,11.156,15.837,9.907,18.219Z" transform="translate(0 0)" fill="#051945"/>
            <path id="Path_1501" data-name="Path 1501" d="M8.237,2.847A19.357,19.357,0,0,1,22.357.378a18.562,18.562,0,0,1,8.677,4.4q-1.507,2.5-3.017,5a2.03,2.03,0,0,1-2.806.773,12.56,12.56,0,0,0-8.83-1.571,8.5,8.5,0,0,0-5.424,3.647,13.087,13.087,0,0,0-1.62,9.009,9.8,9.8,0,0,0,4.093,6.9,9.975,9.975,0,0,0,7.843.931A11.242,11.242,0,0,0,26.821,25.9c1.674,2.217,3.416,4.368,5.113,6.563a19.824,19.824,0,0,1-8.352,5.354,20.219,20.219,0,0,1-10.321.227A16.7,16.7,0,0,1,3.1,30.625,22.257,22.257,0,0,1,.664,13.769,18.027,18.027,0,0,1,8.237,2.847Z" transform="translate(42.943 3.654)" fill="#051945"/>
            <path id="Path_1502" data-name="Path 1502" d="M2.148,0c2.255,0,4.51,0,6.765,0,.005,5.13,0,10.258.005,15.387Q13.2,7.7,17.478,0c3.25.025,6.5-.042,9.754.038C23.782,6.075,20.3,12.089,16.825,18.115c3.856,6.3,7.825,12.522,11.624,18.861-3.357.041-6.714.006-10.071.019q-4.735-7.683-9.46-15.377-.01,6.527,0,13.05A2.241,2.241,0,0,1,6.772,37H0q0-17.334,0-34.666A2.238,2.238,0,0,1,2.148,0Z" transform="translate(78.068 4.452)" fill="#051945"/>
          </g>
          <ellipse id="Ellipse_30" data-name="Ellipse 30" cx="6.186" cy="6.72" rx="6.186" ry="6.72" transform="translate(110.721 28.224)" fill="red"/>
        </g>
      </g>
    </g>
  </g>
</svg>
