<svg xmlns="http://www.w3.org/2000/svg" width="309.004" height="47.516" viewBox="0 0 309.004 47.516">
  <g id="_2011-2019" data-name=" 2011-2019" transform="translate(116.584 -297.545)">
    <g id="Group_70775" data-name="Group 70775">
      <path id="Path_39249" data-name="Path 39249" d="M-101.339,323.876q4.255-2.277,6.137-3.563c2.639-1.783,4.223-3.96,4.223-7.326,0-4.685-3.431-7.853-8.777-7.853-4.949,0-8.381,3.3-8.381,7.721a8.3,8.3,0,0,0,2.772,6.137l-7.062,4.752a15.12,15.12,0,0,1-4.157-10.691c0-8.448,7-15.508,17.158-15.508,10.625,0,16.829,6.335,16.829,15.244a13.881,13.881,0,0,1-2.574,8.777,26.684,26.684,0,0,1-7.457,6.138c-1.122.66-2.046,1.188-2.838,1.584a58.036,58.036,0,0,0-6.4,4.025,6.05,6.05,0,0,0-2.441,3.3h21.844V344.4h-33.129c0-4.949,1.055-8.842,3.234-11.812a25.6,25.6,0,0,1,8.645-7.392C-102.4,324.47-101.6,324.074-101.339,323.876Z" fill="#101820"/>
      <path id="Path_39250" data-name="Path 39250" d="M-57.979,297.545c11.681,0,19.138,9.3,19.138,23.758s-7.457,23.758-19.138,23.758-19.138-9.306-19.138-23.758S-69.66,297.545-57.979,297.545Zm0,7.589c-6.863,0-10.559,6.4-10.559,16.169s3.7,16.168,10.559,16.168,10.559-6.4,10.559-16.168S-51.116,305.134-57.979,305.134Z" fill="#101820"/>
      <path id="Path_39251" data-name="Path 39251" d="M-21.613,309.951c-1.914,4.29-6.665,7.194-11.879,7.524l-1.65-8.711c7.59-.529,12.869-4.489,14.387-10.56h7.721v46.2h-8.579Z" fill="#101820"/>
      <path id="Path_39252" data-name="Path 39252" d="M6.239,309.951c-1.914,4.29-6.666,7.194-11.879,7.524l-1.65-8.711C.3,308.235,5.579,304.275,7.1,298.2h7.721v46.2H6.239Z" fill="#101820"/>
      <path id="Path_39253" data-name="Path 39253" d="M41.548,323.942v7.589H22.41v-7.589Z" fill="#101820"/>
      <path id="Path_39254" data-name="Path 39254" d="M62.271,323.876q4.257-2.277,6.138-3.563c2.64-1.783,4.224-3.96,4.224-7.326,0-4.685-3.432-7.853-8.778-7.853-4.949,0-8.38,3.3-8.38,7.721a8.3,8.3,0,0,0,2.771,6.137l-7.061,4.752a15.117,15.117,0,0,1-4.158-10.691c0-8.448,6.995-15.508,17.159-15.508,10.625,0,16.829,6.335,16.829,15.244a13.881,13.881,0,0,1-2.575,8.777,26.655,26.655,0,0,1-7.457,6.138c-1.122.66-2.045,1.188-2.837,1.584a57.84,57.84,0,0,0-6.4,4.025,6.052,6.052,0,0,0-2.442,3.3H81.146V344.4H48.017c0-4.949,1.056-8.842,3.234-11.812A25.612,25.612,0,0,1,59.9,325.2C61.216,324.47,62.008,324.074,62.271,323.876Z" fill="#101820"/>
      <path id="Path_39255" data-name="Path 39255" d="M105.633,297.545c11.68,0,19.138,9.3,19.138,23.758s-7.458,23.758-19.138,23.758S86.494,335.755,86.494,321.3,93.952,297.545,105.633,297.545Zm0,7.589c-6.863,0-10.559,6.4-10.559,16.169s3.7,16.168,10.559,16.168,10.559-6.4,10.559-16.168S112.5,305.134,105.633,305.134Z" fill="#101820"/>
      <path id="Path_39256" data-name="Path 39256" d="M142,309.951c-1.914,4.29-6.666,7.194-11.88,7.524l-1.649-8.711c7.589-.529,12.869-4.489,14.386-10.56h7.722v46.2H142Z" fill="#101820"/>
      <path id="Path_39257" data-name="Path 39257" d="M165.494,329.552c.859,5.214,4.027,7.721,9.042,7.721,6.4,0,9.965-5.544,9.965-14.585v-1.715c-1.782,4.553-5.676,7.391-11.285,7.391-9.041,0-14.849-6.731-14.849-14.849,0-9.569,6.93-15.97,15.839-15.97,6.533,0,11.152,2.243,13.99,6.73s4.224,10.3,4.224,17.423c0,6.468-1.386,12.011-4.157,16.565s-7.458,6.8-14.057,6.8c-9.042,0-15.179-5.346-16.564-13.068Zm9.042-24.418a7.733,7.733,0,0,0-7.92,8.052c0,4.552,3.235,7.588,7.92,7.588,4.818,0,7.919-3.036,7.919-7.721A7.624,7.624,0,0,0,174.536,305.134Z" fill="#101820"/>
    </g>
  </g>
</svg>
