<?xml version="1.0" encoding="utf-8"?>
<!-- Generator: Adobe Illustrator 23.0.1, SVG Export Plug-In . SVG Version: 6.00 Build 0)  -->
<svg version="1.1" id="Layer_1" xmlns="http://www.w3.org/2000/svg" xmlns:xlink="http://www.w3.org/1999/xlink" x="0px" y="0px"
	 viewBox="0 0 126.5 30.4" style="enable-background:new 0 0 126.5 30.4;" xml:space="preserve">
<style type="text/css">
	.st0{fill:#0B0B15;stroke:#0B0B15;stroke-width:0.25;}
	.st1{fill:#0B0B15;}
</style>
<g>
	<g id="Group_1592_2_" transform="translate(978.187 61.024)">
		<path d="M-956.7-43.3L-956.7-43.3c0.1-0.4,0.1-0.8,0.1-1.2c0-4.5-2.7-7.5-7-7.5h0c-2.1,0.1-4.2,0.9-5.6,2.5
			c-1.5,1.6-2.3,3.6-2.2,5.8c0.1,2.2,0.9,4.2,2.5,5.7c1.5,1.5,3.6,2.3,5.8,2.2h0.2c0,0,0,0,0,0c2.1,0,4.1-0.8,5.7-2.1l-1.5-2.3
			c-1.1,1-2.6,1.5-4.1,1.4c-2.3,0.2-4.3-1.3-4.9-3.5l-0.1-0.4h11.1C-956.8-43-956.8-43.1-956.7-43.3z M-960.1-45.2h-7.7l0.1-0.3
			c0.3-2,2-3.5,4.1-3.5c0.9,0,1.8,0.3,2.5,1c0.7,0.6,1.1,1.5,1.1,2.4l0,0.1L-960.1-45.2z"/>
		<path d="M-941.1-36.2v-9.9c-0.1-3.6-2.4-5.7-6.4-5.7h0c-2.2,0-4.4,0.6-6.4,1.5l1,2.8c1.5-0.7,3.1-1.2,4.8-1.2c0,0,0,0,0,0
			c2,0,3.2,0.9,3.2,2.4v0.8l-0.3,0c-0.5,0-1,0-1.7,0c-4.8,0-7.7,2-7.7,5.4c0,1.3,0.4,2.3,1.3,3.1c0.9,0.8,2.1,1.2,3.5,1.2
			c0,0,0,0,0,0l0.3,0c0,0,0,0,0,0c1.6,0,3.1-0.6,4.3-1.7l0.5-0.5v1.8H-941.1z M-944.8-42.9c-0.1,2.6-1.7,4.2-3.9,4.2
			c-1.4,0-2.3-0.7-2.3-1.9c0-1.7,1.6-2.7,4.4-2.7c0.5,0,1,0,1.6,0.1l0.3,0L-944.8-42.9z"/>
		<path d="M-919.6-43.7c0.1,4.3,3.5,7.7,7.7,7.9l0.3,0c2.2,0,4.3-0.8,5.8-2.3l-1.8-2.5c-1,1-2.5,1.6-3.9,1.6
			c-2.7-0.1-4.8-2.4-4.6-5.1c0.1-2.5,2.1-4.5,4.7-4.6c1.3,0,2.6,0.4,3.6,1.3l1.8-2.5c-1.5-1.3-3.4-2-5.4-2c-0.1,0-0.2,0-0.3,0
			C-916.1-51.8-919.7-48.1-919.6-43.7z"/>
		<path d="M-851.6-44c0-2.3-0.7-4.2-1.9-5.5c-1.2-1.3-3-2-5.1-2c-4.4,0.1-8,3.9-7.8,8.3c0.1,4.4,3.8,7.9,8.2,7.8h0.2c0,0,0,0,0,0
			c2.1,0,4.1-0.8,5.7-2.1l-1.5-2.3c-1.1,1-2.6,1.5-4.1,1.4c-2.2,0.2-4.3-1.3-4.9-3.5l-0.1-0.4h11.1C-851.7-42.8-851.7-43.4-851.6-44
			z M-855.2-44.7h-7.7l0.1-0.3c0.3-2,2-3.5,4.1-3.5c1.9-0.1,3.5,1.5,3.6,3.4L-855.2-44.7z"/>
		<path d="M-974.5-36.2v-23.5c0-0.7-0.6-1.3-1.3-1.3h-2.4v24.8H-974.5z"/>
		<path d="M-922-36.2l0-23.5c0-0.7-0.6-1.3-1.3-1.3h-2.4v6.8c0,1.5,0,2.7,0.1,3.8l0,0.7l-0.5-0.5c-1.3-1.2-2.9-1.8-4.7-1.8
			c-4.3,0-7.4,3.4-7.4,8c0,2.3,0.7,4.4,2.1,5.9c1.3,1.5,3.2,2.3,5.3,2.3c0,0,0,0,0,0h0.2c0,0,0,0,0,0c1.7,0,3.3-0.6,4.5-1.8l0.5-0.5
			v1.9H-922z M-930-39c-2.7,0-4.4-2-4.4-4.9c0-2.9,1.8-4.8,4.4-4.8c0,0,0,0,0,0c2.5,0,4.5,2,4.5,4.4h0c0,0.2,0,0.3,0,0.5
			C-925.6-40.9-927.3-39-930-39z"/>
		<path d="M-868.8-36.2l0-23.5c0-0.7-0.6-1.3-1.3-1.3h-2.4v6.8c0,1.4,0,2.6,0.1,3.8l0,0.7l-0.5-0.5c-1.3-1.2-2.9-1.8-4.7-1.8
			c-4.3,0-7.4,3.4-7.4,8c0,2.3,0.7,4.4,2.1,5.9c1.3,1.5,3.2,2.3,5.3,2.3c0,0,0,0,0,0h0.2c0,0,0,0,0,0c1.7,0,3.3-0.6,4.5-1.8l0.5-0.5
			v1.9H-868.8z M-876.8-39c-2.7,0-4.4-2-4.4-4.9c0-2.9,1.8-4.8,4.4-4.8l0.1,0c2.4,0,4.4,2,4.4,4.5c0,0.1,0,0.2,0,0.4
			C-872.3-40.9-874.1-39-876.8-39z"/>
		<path d="M-887.3-44.5c-0.1-4.5-3.7-8-8.2-8c0,0,0,0,0,0c-4.5,0.1-8.2,3.8-8.1,8.3c0,0.3,0,0.5,0,0.8c0.2,4.1,3.6,7.4,7.8,7.4
			c0.2,0,0.3,0,0.4,0l0.1,0C-890.8-36.2-887.2-40-887.3-44.5z M-898.4-40.4c-0.9-0.8-1.5-1.9-1.6-3.1c0-0.2,0-0.5,0-0.7
			c0-2.9,1.8-4.8,4.5-4.8c2.6,0,4.5,2,4.5,4.9l0,0l0,0c0.1,1.2-0.3,2.4-1.1,3.3c-0.8,0.9-1.9,1.5-3.1,1.6c-0.1,0-0.2,0-0.4,0
			C-896.5-39.3-897.5-39.7-898.4-40.4z"/>
	</g>
	<g id="Group_70870_2_" transform="translate(75 10)">
		<g id="Group_5_2_" transform="translate(2.163 17.575)">
			<g id="Rectangle_1_2_">
				<rect id="Rectangle_3_2_" x="-0.3" y="-0.3" class="st1" width="11.6" height="3.1"/>
			</g>
		</g>
	</g>
</g>
</svg>
