<?xml version="1.0" encoding="utf-8"?>
<!-- Generator: Adobe Illustrator 23.0.1, SVG Export Plug-In . SVG Version: 6.00 Build 0)  -->
<svg version="1.1" id="Layer_1" xmlns="http://www.w3.org/2000/svg" xmlns:xlink="http://www.w3.org/1999/xlink" x="0px" y="0px"
	 viewBox="0 0 45 46" style="enable-background:new 0 0 45 46;" xml:space="preserve">
<style type="text/css">
	.st0{fill:#FFFFFF;}
</style>
<g>
	<path class="st0" d="M9.8,32c-0.9,0-1.7,0.5-2,1.4h3.8C11.4,32.6,10.8,32,9.8,32z"/>
	<ellipse class="st0" cx="22.7" cy="14.7" rx="3.4" ry="5.1"/>
	<path class="st0" d="M30.1,32.1c-0.6,0-1.1,0.2-1.4,0.6c-0.4,0.4-0.6,0.9-0.6,1.6c0,0.6,0.2,1.1,0.6,1.6c0.4,0.4,0.9,0.6,1.4,0.6
		c0.6,0,1.1-0.2,1.4-0.6c0.4-0.4,0.6-0.9,0.6-1.6c0-0.6-0.2-1.2-0.6-1.6C31.2,32.3,30.7,32.1,30.1,32.1z"/>
	<path class="st0" d="M0,0v46h45V0H0z M22.7,7.1c3.7,0,6.1,3,6.1,7.6s-2.4,7.6-6.1,7.6s-6.1-3-6.1-7.6S19,7.1,22.7,7.1z M3.7,16
		c0.9-0.8,1.5-1.6,2-2.4c0.4-0.7,0.7-1.5,0.9-2.2c0.1-0.8,0.2-1.8,0.2-3V7.3h2.7v1.2c0,1.7-0.2,3.1-0.6,4.3
		c-0.4,1.2-1.1,2.4-2.2,3.5h3.8v-4.4H13v4.4h2.4v2.4H13V22h-2.7v-3.4H3.7V16z M12.3,37.4c-0.7,0.5-1.5,0.8-2.5,0.8
		c-1.2,0-2.1-0.4-2.8-1.1c-0.7-0.7-1.1-1.6-1.1-2.8c0-1.1,0.4-2.1,1.1-2.8c0.7-0.7,1.7-1.1,2.8-1.1c1,0,1.9,0.3,2.6,0.9
		c0.7,0.6,1,1.4,1,2.4c0,0.4-0.1,0.8-0.2,1.2H7.8c0.2,1,1,1.6,2.2,1.6c0.5,0,0.9-0.1,1.2-0.3c0.3-0.2,0.5-0.4,0.5-0.7h1.7
		C13.3,36.2,13,36.9,12.3,37.4z M19.6,32.2c-0.8,0-1.4,0.2-1.9,0.7c-0.5,0.5-0.8,1.1-0.8,1.9V38H15v-7.5h1.9v1.3
		c0.7-1,1.6-1.5,2.7-1.5V32.2z M25.5,32.2c-0.8,0-1.4,0.2-1.9,0.7c-0.5,0.5-0.8,1.1-0.8,1.9V38h-1.9v-7.5h1.9v1.3
		c0.7-1,1.6-1.5,2.7-1.5V32.2z M32.9,37.1c-0.7,0.7-1.7,1.1-2.8,1.1c-1.1,0-2.1-0.4-2.8-1.1c-0.7-0.7-1.1-1.7-1.1-2.8
		c0-1.1,0.4-2.1,1.1-2.8c0.7-0.7,1.7-1.1,2.8-1.1c1.1,0,2.1,0.4,2.8,1.1c0.7,0.7,1.1,1.7,1.1,2.8C34,35.4,33.6,36.3,32.9,37.1z
		 M40.1,32.2c-0.8,0-1.4,0.2-1.9,0.7c-0.5,0.5-0.8,1.1-0.8,1.9V38h-1.9v-7.5h1.9v1.3c0.7-1,1.6-1.5,2.7-1.5V32.2z M42,18.6h-2.4V22
		H37v-3.4h-6.7V16c0.9-0.8,1.5-1.6,2-2.4c0.4-0.7,0.7-1.5,0.9-2.2c0.1-0.8,0.2-1.8,0.2-3V7.3H36v1.2c0,1.7-0.2,3.1-0.6,4.3
		c-0.4,1.2-1.1,2.4-2.2,3.5H37v-4.4h2.7v4.4H42V18.6z"/>
</g>
</svg>
