<svg id="Слой_1" data-name="Слой 1" xmlns="http://www.w3.org/2000/svg" viewBox="0 0 179.97 60"><defs><style>.cls-1,.cls-3{fill:#fff;}.cls-2{fill:#602308;}.cls-3{stroke:#602308;stroke-miterlimit:10;}.cls-4{fill:#70280a;}</style></defs><title>leadcode-partner</title><g id="Path_2548" data-name="Path 2548"><path class="cls-1" d="M3,17.37a.8.8,0,0,0,0,.69L21.64,50.5a.86.86,0,0,0,.62.33H34.9a.85.85,0,0,0,.59-.37L54.15,18a.78.78,0,0,0,0-.65l-5.37-7.8a.89.89,0,0,0-.65-.37H8.94a.89.89,0,0,0-.6.37Z"/></g><g id="Path_2548-2" data-name="Path 2548"><path class="cls-2" d="M22.44,52.21a2.53,2.53,0,0,1-2-1.12L2,19a2.49,2.49,0,0,1,0-2.27L2,16.62,7.38,8.89A2.45,2.45,0,0,1,9.3,7.8H48.08a2.55,2.55,0,0,1,2,1.1l5.38,7.82a2.45,2.45,0,0,1,0,2.22L37,51.05A2.48,2.48,0,0,1,35,52.2Zm-19-34.7a.81.81,0,0,0,0,.68l18.43,32a.8.8,0,0,0,.61.32H35a.79.79,0,0,0,.58-.36L54,18.15a.79.79,0,0,0,0-.64l-5.3-7.7A.85.85,0,0,0,48,9.45H9.34a.81.81,0,0,0-.59.36Z"/></g><path class="cls-2" d="M38.67,16.93a1.78,1.78,0,0,0-1.45.9L32,28.25a1.79,1.79,0,0,1-1.45.89h-4a1.75,1.75,0,0,1-1.43-.9l-4.9-10.4a1.71,1.71,0,0,0-1.42-.91H11.27c-.55,0-.77.4-.5.88L24.53,42.28a1.89,1.89,0,0,0,1.49.87H31.4a1.89,1.89,0,0,0,1.49-.87L46.66,17.81c.27-.48,0-.88-.51-.88Z"/><g id="Group_502" data-name="Group 502"><path id="Path_2566" data-name="Path 2566" class="cls-3" d="M38.33,16.85h-9l9,8.53Z"/><path id="Path_2567" data-name="Path 2567" class="cls-3" d="M19.32,40.08h10l-10-8.84Z"/><path id="Path_2568" data-name="Path 2568" class="cls-3" d="M37.65,38.23A6.93,6.93,0,0,0,39.57,33a8.09,8.09,0,0,0-2.68-5.59L25.77,16.85H24.24a6.46,6.46,0,0,0-5.29,7A8.62,8.62,0,0,0,20.6,29l.62.66L32.81,40a10,10,0,0,0,2-.18A5.73,5.73,0,0,0,37.65,38.23Z"/></g><g id="Group_551" data-name="Group 551"><g id="Group_525" data-name="Group 525"><path id="Path_2604" data-name="Path 2604" class="cls-4" d="M71.18,40.89h-.59V38.08l-.85,1.82h-.45l-.85-1.82v2.81h-.56V37.32h.72l.94,2,.91-2h.73Z"/><path id="Path_2605" data-name="Path 2605" class="cls-4" d="M75.8,41a1.76,1.76,0,0,1-1.32-.48A1.9,1.9,0,0,1,74,39.12a2,2,0,0,1,.46-1.38,1.55,1.55,0,0,1,1.19-.52,1.7,1.7,0,0,1,.59.1,1.11,1.11,0,0,1,.45.3,1.32,1.32,0,0,1,.29.5,2.2,2.2,0,0,1,.1.72v.33H74.62a1.33,1.33,0,0,0,.31.95,1.16,1.16,0,0,0,.87.33,1.58,1.58,0,0,0,.38-.05,1.42,1.42,0,0,0,.35-.11l.27-.14L77,40h0v.65l-.26.1-.28.1a2.34,2.34,0,0,1-.32.07A2.19,2.19,0,0,1,75.8,41Zm.71-2.26a1.52,1.52,0,0,0-.06-.42.85.85,0,0,0-.15-.3.6.6,0,0,0-.27-.2,1.13,1.13,0,0,0-.81,0,1,1,0,0,0-.31.21,1.27,1.27,0,0,0-.2.31,1.37,1.37,0,0,0-.09.4Z"/><path id="Path_2606" data-name="Path 2606" class="cls-4" d="M82.5,37.85a1.39,1.39,0,0,1,.33.53,2.13,2.13,0,0,1,.11.75,2.27,2.27,0,0,1-.13.77,1.91,1.91,0,0,1-.35.58,1.7,1.7,0,0,1-.51.38,1.55,1.55,0,0,1-1.22,0,1.22,1.22,0,0,1-.48-.36,1.93,1.93,0,0,1-.37-.76,4.3,4.3,0,0,1-.12-1.13,4.1,4.1,0,0,1,0-.49,5.58,5.58,0,0,1,.09-.59A3.43,3.43,0,0,1,80,37a1.48,1.48,0,0,1,.28-.45,1.68,1.68,0,0,1,.6-.37,3.49,3.49,0,0,1,1-.2l.46,0,.37,0v.55l-.35,0-.43,0a4.93,4.93,0,0,0-.67.11,1.05,1.05,0,0,0-.53.28.94.94,0,0,0-.22.39,3.47,3.47,0,0,0-.11.56,3.15,3.15,0,0,1,.51-.28,1.43,1.43,0,0,1,.58-.12,1.68,1.68,0,0,1,.55.1A1.14,1.14,0,0,1,82.5,37.85Zm-.17,1.32a1.35,1.35,0,0,0-.25-.87.94.94,0,0,0-.73-.31,1.43,1.43,0,0,0-.5.09,2,2,0,0,0-.46.23s0,.12,0,.19a1.41,1.41,0,0,0,0,.2,3.4,3.4,0,0,0,.09.9,1.38,1.38,0,0,0,.25.55.81.81,0,0,0,.3.25,1,1,0,0,0,.35.07.83.83,0,0,0,.71-.35,1.52,1.52,0,0,0,.26-.95Z"/><path id="Path_2607" data-name="Path 2607" class="cls-4" d="M87.37,41a1.74,1.74,0,0,1-1.32-.48,1.82,1.82,0,0,1-.47-1.37A2,2,0,0,1,86,37.74a1.55,1.55,0,0,1,1.2-.52,1.7,1.7,0,0,1,.59.1,1,1,0,0,1,.44.3,1.48,1.48,0,0,1,.3.5,2.5,2.5,0,0,1,.1.72v.33H86.18a1.34,1.34,0,0,0,.32.95,1.15,1.15,0,0,0,.86.33,1.74,1.74,0,0,0,.39-.05,1.35,1.35,0,0,0,.34-.11l.28-.14.18-.13h0v.65l-.26.1-.29.1a2.22,2.22,0,0,1-.31.07A2.19,2.19,0,0,1,87.37,41Zm.7-2.26a2,2,0,0,0,0-.42.85.85,0,0,0-.15-.3.66.66,0,0,0-.27-.2,1.13,1.13,0,0,0-.81,0,1,1,0,0,0-.31.21.87.87,0,0,0-.2.31,1.37,1.37,0,0,0-.09.4Z"/><path id="Path_2608" data-name="Path 2608" class="cls-4" d="M94.32,40.89h-.6V37.83H92.5l0,.5c0,.17,0,.31,0,.45q0,.49-.06.84a5.23,5.23,0,0,1-.12.54,1.26,1.26,0,0,1-.16.33,1.24,1.24,0,0,1-.19.21.68.68,0,0,1-.23.14.92.92,0,0,1-.28,0h-.24v-.52h.13l.15,0a.26.26,0,0,0,.13-.08,1,1,0,0,0,.23-.55,7.89,7.89,0,0,0,.11-1.09c0-.17,0-.38,0-.62s0-.47,0-.68h2.35v3.56Z"/><path id="Path_2609" data-name="Path 2609" class="cls-4" d="M100.05,39.78a.93.93,0,0,1-.1.47.84.84,0,0,1-.28.34,1.37,1.37,0,0,1-.45.23,2.56,2.56,0,0,1-.62.07H97.35V37.32H98v1.39h.67a4.21,4.21,0,0,1,.62,0,1.19,1.19,0,0,1,.44.21.8.8,0,0,1,.28.35A1.09,1.09,0,0,1,100.05,39.78Zm-.61,0a.71.71,0,0,0-.06-.28.49.49,0,0,0-.18-.2.87.87,0,0,0-.31-.1H98v1.21h.44a2.68,2.68,0,0,0,.49,0,.89.89,0,0,0,.31-.11.52.52,0,0,0,.19-.2.72.72,0,0,0,.06-.29Z"/><path id="Path_2610" data-name="Path 2610" class="cls-4" d="M105.59,40.89H105V39.28h-1.61v1.61h-.6V37.32h.6v1.44H105V37.32h.6Z"/><path id="Path_2611" data-name="Path 2611" class="cls-4" d="M110.62,40.51l-.19.15-.24.15a1.69,1.69,0,0,1-.31.13,2,2,0,0,1-.42.05,1.09,1.09,0,0,1-.76-.32,1.05,1.05,0,0,1-.23-.36,1.22,1.22,0,0,1-.09-.46,1.16,1.16,0,0,1,.16-.63,1.09,1.09,0,0,1,.49-.41,2.58,2.58,0,0,1,.71-.19c.27,0,.57-.06.88-.08v-.12a.82.82,0,0,0-.06-.34.41.41,0,0,0-.18-.19.59.59,0,0,0-.28-.1,2.07,2.07,0,0,0-.35,0,2.65,2.65,0,0,0-.48.07,2.7,2.7,0,0,0-.57.18h0V37.4a3.72,3.72,0,0,1,.47-.11,3.26,3.26,0,0,1,.62-.06,3.34,3.34,0,0,1,.62.06,1.32,1.32,0,0,1,.45.21.9.9,0,0,1,.29.38,1.35,1.35,0,0,1,.09.56v2.44h-.59V40.5Zm0-.5V39l-.54.06a2.45,2.45,0,0,0-.53.09,1,1,0,0,0-.39.22.58.58,0,0,0-.16.43.6.6,0,0,0,.17.46.79.79,0,0,0,.51.16,1,1,0,0,0,.51-.13,1.84,1.84,0,0,0,.43-.3Z"/><path id="Path_2612" data-name="Path 2612" class="cls-4" d="M116.84,40.89h-.6V39.47h-.59l-1.06,1.42h-.7L115,39.42a1.28,1.28,0,0,1-.65-.39,1,1,0,0,1-.2-.69.84.84,0,0,1,.11-.47,1,1,0,0,1,.32-.33,1.18,1.18,0,0,1,.4-.17,3.29,3.29,0,0,1,.54,0h1.28v3.57Zm-.6-1.89V37.8h-.65a1.83,1.83,0,0,0-.33,0,.92.92,0,0,0-.23.09.45.45,0,0,0-.17.19.54.54,0,0,0-.06.25.92.92,0,0,0,0,.29.43.43,0,0,0,.15.2.62.62,0,0,0,.27.13,2,2,0,0,0,.35,0Z"/><path id="Path_2613" data-name="Path 2613" class="cls-4" d="M133,39a2.94,2.94,0,0,1-.12.84,1.72,1.72,0,0,1-.31.6,1.43,1.43,0,0,1-.44.37,1.13,1.13,0,0,1-.51.12.9.9,0,0,1-.36-.08l-.25-.13V42.2h-.6V40.73l-.3.15a.74.74,0,0,1-.36.06,1.1,1.1,0,0,1-1-.49,2.1,2.1,0,0,1-.36-1.33,2.42,2.42,0,0,1,.11-.8,1.74,1.74,0,0,1,.32-.6,1.13,1.13,0,0,1,.43-.35,1.09,1.09,0,0,1,.5-.13.77.77,0,0,1,.34.07,1.59,1.59,0,0,1,.29.15V35.92H131v1.54a1,1,0,0,1,.32-.15,1,1,0,0,1,.38-.07,1.11,1.11,0,0,1,.94.48A2.21,2.21,0,0,1,133,39Zm-2.59,1.26V37.9l-.23-.1a.69.69,0,0,0-.25,0,.76.76,0,0,0-.65.32,1.69,1.69,0,0,0-.24,1,2,2,0,0,0,.21,1,.69.69,0,0,0,.62.35.7.7,0,0,0,.29,0l.26-.11Zm2-1.19a1.82,1.82,0,0,0-.21-1,.65.65,0,0,0-.6-.35,1,1,0,0,0-.3,0l-.26.1v2.37l.23.11a.56.56,0,0,0,.25,0,.77.77,0,0,0,.65-.35,1.75,1.75,0,0,0,.24-1Z"/><path id="Path_2614" data-name="Path 2614" class="cls-4" d="M137.85,40.51a1.46,1.46,0,0,0-.2.15,1,1,0,0,1-.24.15,1.69,1.69,0,0,1-.31.13,1.84,1.84,0,0,1-.41.05,1.1,1.1,0,0,1-.77-.32,1.05,1.05,0,0,1-.23-.36,1.34,1.34,0,0,1,.07-1.09,1.06,1.06,0,0,1,.5-.41,2.42,2.42,0,0,1,.7-.19c.28,0,.57-.06.89-.08v-.12a.83.83,0,0,0-.07-.34.41.41,0,0,0-.18-.19.56.56,0,0,0-.28-.1,2,2,0,0,0-.34,0,2.63,2.63,0,0,0-.49.07,2.81,2.81,0,0,0-.56.18h0V37.4a3.54,3.54,0,0,1,.48-.11,3.18,3.18,0,0,1,1.23,0,1.17,1.17,0,0,1,.45.21,1,1,0,0,1,.3.38,1.53,1.53,0,0,1,.09.56v2.44h-.6Zm0-.5V39l-.54.06a2.35,2.35,0,0,0-.53.09,1,1,0,0,0-.4.22.7.7,0,0,0,0,.89.75.75,0,0,0,.5.16,1.06,1.06,0,0,0,.52-.13,2.08,2.08,0,0,0,.43-.3Z"/><path id="Path_2615" data-name="Path 2615" class="cls-4" d="M144,37.85a1.51,1.51,0,0,1,.32.53,2.4,2.4,0,0,1,.12.75,2.27,2.27,0,0,1-.13.77,1.76,1.76,0,0,1-.36.58,1.48,1.48,0,0,1-.51.38,1.54,1.54,0,0,1-.6.13,1.67,1.67,0,0,1-.62-.12,1.22,1.22,0,0,1-.48-.36,1.91,1.91,0,0,1-.36-.76,4.31,4.31,0,0,1-.13-1.13c0-.16,0-.32,0-.49a5.58,5.58,0,0,1,.09-.59,2.7,2.7,0,0,1,.18-.57,1.31,1.31,0,0,1,.28-.45,1.73,1.73,0,0,1,.59-.37,3.56,3.56,0,0,1,1-.2l.46,0,.37,0v.55l-.35,0-.43,0a5.07,5.07,0,0,0-.68.11,1.09,1.09,0,0,0-.53.28.92.92,0,0,0-.21.39,2.64,2.64,0,0,0-.11.56,3.53,3.53,0,0,1,.5-.28,1.52,1.52,0,0,1,.59-.12,1.72,1.72,0,0,1,.55.1A1.29,1.29,0,0,1,144,37.85Zm-.17,1.32a1.3,1.3,0,0,0-.26-.87.91.91,0,0,0-.73-.31,1.43,1.43,0,0,0-.5.09,1.91,1.91,0,0,0-.45.23s0,.12,0,.19v.2a3.4,3.4,0,0,0,.09.9,1.25,1.25,0,0,0,.25.55.73.73,0,0,0,.3.25,1,1,0,0,0,.35.07.83.83,0,0,0,.71-.35,1.52,1.52,0,0,0,.26-.95Z"/><path id="Path_2616" data-name="Path 2616" class="cls-4" d="M150.26,39a2.18,2.18,0,0,1-.42,1.42,1.35,1.35,0,0,1-1.08.53,1.89,1.89,0,0,1-.47-.06,2.6,2.6,0,0,1-.42-.19V42.2h-.6V37.32h.6v.38a2.1,2.1,0,0,1,.5-.34,1.21,1.21,0,0,1,.59-.13,1.07,1.07,0,0,1,1,.48A2.14,2.14,0,0,1,150.26,39Zm-.62.07a2,2,0,0,0-.19-.95.67.67,0,0,0-.63-.33,1.25,1.25,0,0,0-.5.11,2.66,2.66,0,0,0-.45.29v2a2.23,2.23,0,0,0,.4.16,1.72,1.72,0,0,0,.39,0,.85.85,0,0,0,.72-.34,1.56,1.56,0,0,0,.26-1Z"/><path id="Path_2617" data-name="Path 2617" class="cls-4" d="M155.91,40.89h-.59V38.23l-1.68,2.66h-.54V37.32h.59v2.62l1.66-2.62h.56Z"/><path id="Path_2618" data-name="Path 2618" class="cls-4" d="M161.81,40.89h-.74l-1.23-1.65h-.3v1.65h-.6V37.32h.6v1.55a.78.78,0,0,0,.4-.09.74.74,0,0,0,.28-.37,1.21,1.21,0,0,0,.08-.19,1.08,1.08,0,0,0,.07-.18,1.17,1.17,0,0,1,.39-.56,1.23,1.23,0,0,1,.65-.16h.16v.52h-.13a.62.62,0,0,0-.38.1.76.76,0,0,0-.21.38,1.35,1.35,0,0,1-.22.43.85.85,0,0,1-.26.24Z"/><path id="Path_2619" data-name="Path 2619" class="cls-4" d="M166.38,40.51a1.46,1.46,0,0,0-.2.15,1,1,0,0,1-.24.15,1.69,1.69,0,0,1-.31.13,1.84,1.84,0,0,1-.41.05,1.1,1.1,0,0,1-.77-.32,1.05,1.05,0,0,1-.23-.36,1.34,1.34,0,0,1,.07-1.09,1.06,1.06,0,0,1,.5-.41,2.42,2.42,0,0,1,.7-.19c.28,0,.57-.06.88-.08v-.12a.68.68,0,0,0-.06-.34.41.41,0,0,0-.18-.19.56.56,0,0,0-.28-.1,2,2,0,0,0-.34,0,2.63,2.63,0,0,0-.49.07,2.81,2.81,0,0,0-.56.18h0V37.4a3.54,3.54,0,0,1,.48-.11,3.18,3.18,0,0,1,1.23,0,1.24,1.24,0,0,1,.45.21.9.9,0,0,1,.29.38,1.54,1.54,0,0,1,.1.56v2.44h-.6V40.5Zm0-.5V39l-.54.06a2.35,2.35,0,0,0-.53.09,1,1,0,0,0-.4.22.62.62,0,0,0-.16.43.61.61,0,0,0,.18.46.75.75,0,0,0,.5.16,1.06,1.06,0,0,0,.52-.13,2.08,2.08,0,0,0,.43-.3Z"/></g><path class="cls-2" d="M66.74,24.64a9,9,0,0,0-2.95-1.46l-1-.33a8.36,8.36,0,0,1-1.64-.65,1.61,1.61,0,0,1-.38-.31,1.51,1.51,0,0,1,.14-2.11,2.09,2.09,0,0,1,1.36-.44,3.74,3.74,0,0,1,2.33,1,8,8,0,0,1,1.74,2l.11.19,1.1-.38L66.2,17.8l-.31.28a2.49,2.49,0,0,1-.59.41,1.14,1.14,0,0,1-.57.16.47.47,0,0,1-.21,0l-.4-.14a6.85,6.85,0,0,0-1-.28,6.29,6.29,0,0,0-1-.07,4.21,4.21,0,0,0-2.91,1.08A3.64,3.64,0,0,0,58,22a3.71,3.71,0,0,0,.89,2.52A5.88,5.88,0,0,0,61,26c.47.21,1.26.5,2.38.86a6.38,6.38,0,0,1,1.57.66,1.55,1.55,0,0,1,.7,1.29A1.71,1.71,0,0,1,65,30.18a2.43,2.43,0,0,1-1.54.56h0a4,4,0,0,1-2.61-1.09,10,10,0,0,1-1.92-2.34l-.11-.18-1.11.37,1.27,4.56.29-.14c.71-.35,1-.46,1-.49a1.07,1.07,0,0,1,.37-.05,1,1,0,0,1,.37.05l.42.12a9.07,9.07,0,0,0,1.14.29,5.74,5.74,0,0,0,1.09.1h0a4.48,4.48,0,0,0,3.15-1.21,4,4,0,0,0,1.32-3.06A3.79,3.79,0,0,0,66.74,24.64Z"/><path class="cls-2" d="M77.1,19.56l.27,0a1.35,1.35,0,0,1,.84.26.85.85,0,0,1,.31.72,1.44,1.44,0,0,1-.09.51c-.07.21-.13.41-.18.59l-2,5.79-2.39-6.76c-.08-.18-.12-.3-.12-.26v-.08a1.09,1.09,0,0,1,0-.33.32.32,0,0,1,.08-.25,1.8,1.8,0,0,1,1-.19l.29,0V18.44H68.8v1.08l.25,0a1.45,1.45,0,0,1,1.15.75,15.69,15.69,0,0,1,.64,1.6l3.54,10H76.2l3.32-9.77a5.47,5.47,0,0,1,1-2,2.29,2.29,0,0,1,1.12-.5h.24V18.44H77.1Z"/><path class="cls-2" d="M106.93,30.53a1.67,1.67,0,0,1-1.09-.27,1.5,1.5,0,0,1-.28-1.06V20.83a1.44,1.44,0,0,1,.27-1,1.78,1.78,0,0,1,1.1-.25l.29,0V18.44h-5.33l-2.62,7.41-2.55-7.41H91.25v1.13l.29,0a1.66,1.66,0,0,1,1.08.27,1.39,1.39,0,0,1,.29,1.06v6.68a6,6,0,0,1-.27,2.38,1.86,1.86,0,0,1-1.25.6h-.25v1.09H96V30.55l-.24,0c-.66-.07-1.08-.24-1.19-.44a7.32,7.32,0,0,1-.25-2.56l0-5.53,3.45,9.63h1l3.43-9.91v7.52a1.44,1.44,0,0,1-.29,1,1.61,1.61,0,0,1-1.08.27l-.3,0v1.13h6.67V30.5Z"/><path class="cls-2" d="M120.46,27.74a8.26,8.26,0,0,1-2.31,1.93,6,6,0,0,1-2.89.76.92.92,0,0,1-.86-.34,2.4,2.4,0,0,1-.15-1.07V25.63h.13a3.47,3.47,0,0,1,1.82.38,2.58,2.58,0,0,1,.91,1.55l0,.22h1.16V22.25h-1.14l0,.2a2.82,2.82,0,0,1-1,1.5,3.69,3.69,0,0,1-1.84.34h-.07V21.16a2.71,2.71,0,0,1,.14-1.22c.07-.11.32-.29,1.11-.29a4.87,4.87,0,0,1,2.61.79,7.43,7.43,0,0,1,2.06,1.89l.13.16,1-.4L120,18.44H109.25v1.13l.29,0a1.63,1.63,0,0,1,1.09.28,1.47,1.47,0,0,1,.28,1.05v8.37a1.4,1.4,0,0,1-.29,1,1.6,1.6,0,0,1-1.08.27l-.29,0v1.13H120l1.44-3.6-.87-.46Z"/><path class="cls-2" d="M133.41,24.65a10,10,0,0,0-4.48-.72H127.5V21.16a2.71,2.71,0,0,1,.14-1.22c.07-.11.32-.29,1.11-.29a4.85,4.85,0,0,1,2.61.79,7.61,7.61,0,0,1,2.07,1.89l.12.16.95-.4-1.22-3.65H122.5v1.13l.29,0a1.63,1.63,0,0,1,1.09.28,1.47,1.47,0,0,1,.28,1.05v8.37a1.4,1.4,0,0,1-.29,1,1.6,1.6,0,0,1-1.08.27l-.29,0v1.13h7.84a6.22,6.22,0,0,0,3.35-1A3.12,3.12,0,0,0,135.14,28,3.48,3.48,0,0,0,133.41,24.65Zm-1.78,3.1a2.81,2.81,0,0,1-.76,2.11,2.65,2.65,0,0,1-1.91.67c-.71,0-1.16-.13-1.29-.33a3.84,3.84,0,0,1-.17-1.55V25.27h.75a4.38,4.38,0,0,1,2.67.62,2.23,2.23,0,0,1,.71,1.82v0Z"/><path class="cls-2" d="M147.47,27.74a8.12,8.12,0,0,1-2.31,1.93,6,6,0,0,1-2.89.76.92.92,0,0,1-.86-.34,2.4,2.4,0,0,1-.15-1.07V25.63h.13a3.47,3.47,0,0,1,1.82.38,2.58,2.58,0,0,1,.91,1.55l0,.22h1.16V22.25h-1.14l-.05.2a2.84,2.84,0,0,1-.95,1.5,3.73,3.73,0,0,1-1.84.34h-.08V21.16a3,3,0,0,1,.14-1.22c.08-.11.32-.29,1.11-.29a4.85,4.85,0,0,1,2.61.79,7.61,7.61,0,0,1,2.07,1.89l.12.16.95-.4L147,18.44H136.26v1.13l.29,0a1.63,1.63,0,0,1,1.09.28,1.47,1.47,0,0,1,.28,1.05v8.37a1.4,1.4,0,0,1-.29,1,1.58,1.58,0,0,1-1.08.27l-.29,0v1.13H147l1.44-3.6-.86-.46Z"/><path class="cls-2" d="M152.42,19.58l.3,0a2,2,0,0,1,1.24.27,1.5,1.5,0,0,1,.28,1.06v6.07a7.09,7.09,0,0,1-.42,2.79c-.21.44-.36.48-.4.48h0a1.71,1.71,0,0,1,0-.31,2,2,0,0,0-.38-1.3,1.48,1.48,0,0,0-1.2-.47,1.73,1.73,0,0,0-1.32.53,1.77,1.77,0,0,0-.47,1.23,1.83,1.83,0,0,0,.86,1.58,3,3,0,0,0,1.63.48h.09c2.06,0,3.11-1.69,3.11-5v-6c0-.56.11-.93.28-1.05a2.33,2.33,0,0,1,1.15-.19h.47a2.31,2.31,0,0,1,1.22.18,2.17,2.17,0,0,1,.15,1.06v8.37a1.4,1.4,0,0,1-.29,1,1.6,1.6,0,0,1-1.08.27l-.29,0v1.13h6.66V30.5l-.3,0a1.6,1.6,0,0,1-1.08-.27,1.49,1.49,0,0,1-.28-1.05V20.84a1.4,1.4,0,0,1,.28-1,1.75,1.75,0,0,1,1.09-.27l.29,0V18.44H152.42Z"/><path class="cls-2" d="M176.76,25.3c-.9-.7-2.4-1.05-4.59-1.05H171V20.84a1.47,1.47,0,0,1,.29-1,1.73,1.73,0,0,1,1.09-.27l.29,0V18.44H166v1.13l.29,0a1.63,1.63,0,0,1,1.09.28,1.47,1.47,0,0,1,.28,1.05v8.37a1.4,1.4,0,0,1-.29,1,1.6,1.6,0,0,1-1.08.27l-.29,0v1.13h6.41l.49,0a7.11,7.11,0,0,0,3.77-1.08A3,3,0,0,0,178,28,3.24,3.24,0,0,0,176.76,25.3ZM174.45,28a2.11,2.11,0,0,1-2.36,2.41c-.52,0-.87-.1-1-.24A2.85,2.85,0,0,1,171,29V25.46h.77a3,3,0,0,1,2.07.56,2.53,2.53,0,0,1,.64,1.95V28Z"/><rect class="cls-2" x="82.2" y="25.18" width="7.12" height="2.55"/></g></svg>