<svg id="Слой_1" data-name="Слой 1" xmlns="http://www.w3.org/2000/svg" viewBox="0 0 154.66 60"><defs><style>.cls-1{fill:#eb2427;}.cls-2{fill:#fff;}</style></defs><title>leadcode-partner</title><g id="Group_1394" data-name="Group 1394"><path class="cls-1" d="M70.53,29.53l-9.13.67V12.26A2.25,2.25,0,0,0,59.13,10H4a2.25,2.25,0,0,0-2.27,2.27V47.73A2.25,2.25,0,0,0,4,50H59.13a2.25,2.25,0,0,0,2.27-2.27V31.06l9.2-.66c.27,0,.4-.2.4-.47A.45.45,0,0,0,70.53,29.53ZM58.66,44.86A1.87,1.87,0,1,1,56.8,43h0a1.9,1.9,0,0,1,1.86,1.86Z"/><path id="Path_1522" data-name="Path 1522" class="cls-2" d="M49.86,31.13l1.87-11.94a1.19,1.19,0,0,0-.73-1.6,1.32,1.32,0,0,0-1.2.2l-8.6,4.14-.67-7.27c-.07-.53-.13-1.07-.6-1.13s-.6.53-.73,1.06l-1.47,7.14-5.54-7.34c-.33-.46-.73-.86-1.06-.66s-.2.73.06,1.26l4.2,9.74-4.86,2.4-.27-5.27c0-.53-.13-1.07-.53-1.13s-.67.46-.8,1l-2.2,7.33-2.54,1.2-1.6-2.73.8-14.4c.07-.74.07-1.14-.33-1.2s-.47.33-.6,1.06l-1.8,11.14-2.73-4.87c-.34-.6-.74-.87-1.07-.8s-.53.53-.53,1.2V33.6l-1.14.06L14,25.39c-.13-.86-.47-1.06-.73-1.13s-.74.07-1.14.8L7.79,32.8A1.22,1.22,0,0,0,8,34.6a1.39,1.39,0,0,0,1.13.26l5.47-.4,1.54,10.67c.06.67.13,1.13.6,1.07s.4-.54.4-1.14V34.26l4.46-.33L20.86,47c0,.6,0,1.13.4,1.2h.07c.33,0,.53-.47.66-1l3.87-12.74L32,45.13c.47.8.94.8,1.14.8s.66-.27.86-1.13l2.4-11.94,2.54-.2L41.6,38.8c.2.53.46,1,.93.86s.4-.66.4-1.2l-.6-6.06L45,32.2l2.33,3.06c.53.74,1,.74,1.27.67s.66-.27.8-1.2l.46-2.87L61.53,31v-.74ZM9,34.06a1,1,0,0,1-.73-.2.71.71,0,0,1,.13-.73l4.33-7.74a.3.3,0,1,1,.54-.26.3.3,0,0,1-.07.33l1.2,8.2Zm7.27,7.54-1.07-7.27,1.07-.07ZM40.53,23.06l.27,2.6-1.54-2Zm-.73-7.73.66,6.93-1.66.8-.47-.6Zm-7.41.46,5.2,6.87-.2,1.07-1.26.6Zm4.8,8.87-.33,1.53-.47-1.13Zm-7.66-2.53.26,5.33-2.2,1.07Zm-2.27,7.33,2.53-1.2L30,32.6l-3.73.26Zm-2.4,3.47-2.67.2.07-1.27,1.53-.73Zm-2.4-4.2,1,1.73L22.33,31Zm-.13-10.4-.47,7.86-.67-1.13Zm-1.27,7.93.73,1.33-.2,3.81-.46.2a.72.72,0,0,1-.74.06.81.81,0,0,1-.13-.73ZM17,33.46V19.19a1.17,1.17,0,0,1,.2.34l3.2,5.66-.93,5.61a1.29,1.29,0,0,0,.73,1.6,1.21,1.21,0,0,0,1.14-.2h.06l-.06.93ZM21.53,45.8l.66-11.94,3-.2Zm4-13.2-1-1.8,1.8-.87Zm7.6,12.06a1.12,1.12,0,0,1-.2.54.9.9,0,0,1-.4-.4l-6.4-11.2,3.93-.27.13,2.93c0,.54.14,1.07.54,1.14s.66-.47.86-1l1.07-3.27,2.87-.2Zm-2.34-11.4,1-.06L30.86,36Zm4.87-1.13-2.8.2,1.6-5a.36.36,0,1,0-.67-.27v.07L32.06,32.4l-1.33.06-.2-4.6,5.13-2.47.93,2.14Zm.8-.07.67-3.4,1.4,3.2Zm.93-4.67.67-3.13.6-.27L41,27.06l.46,4.67-2.07.13ZM39.6,32.6l1.8-.14.53,5.6Zm2.53-.94-.33-3.47,2.53,3.34Zm6.4,3c-.07.4-.2.54-.27.54s-.26-.07-.46-.4l-2-2.67,3.2-.2Zm.53-3.46-3.86.26-3.54-4.67-.4-4.06,8.8-4.27a.74.74,0,0,1,.74-.07.84.84,0,0,1,.13.74Z"/><g id="Group_1388" data-name="Group 1388"><g id="Group_1377" data-name="Group 1377"><path id="Path_1523" data-name="Path 1523" class="cls-1" d="M85.82,19.07v1.34H85V19.07c-2.67-.13-4.33-1.73-4.33-3.86s1.66-3.74,4.33-3.87V10h.8v1.34c2.67.13,4.34,1.67,4.34,3.87S88.49,18.94,85.82,19.07Zm-.8-.73v-6.2c-2.2.13-3.47,1.33-3.47,3.13s1.34,2.94,3.47,3.07Zm4.27-3.13c0-1.74-1.27-3-3.47-3.14v6.2c2.2-.06,3.47-1.33,3.47-3.06Z"/><path id="Path_1524" data-name="Path 1524" class="cls-1" d="M96.82,16.67a1.49,1.49,0,0,1-.06.54h-4.6a2.06,2.06,0,0,0,2.13,1.93A2,2,0,0,0,96,18.41l.47.6a3.06,3.06,0,0,1-2.2.86,3,3,0,0,1-3-3,3.06,3.06,0,0,1,2.93-3,2.39,2.39,0,0,1,2.54,2.4A1,1,0,0,1,96.82,16.67Zm-4.6-.13H96a1.72,1.72,0,0,0-1.53-1.87h-.27a2,2,0,0,0-2,1.87Z"/><path id="Path_1525" data-name="Path 1525" class="cls-1" d="M103.62,19v2.26h-.73V19.74H98.22v1.53h-.73V19h.73a4,4,0,0,0,.54-1.94L99,14h3.8v5Zm-4.13-1.8A4.23,4.23,0,0,1,99,19H102V14.74H99.69Z"/><path id="Path_1526" data-name="Path 1526" class="cls-1" d="M109.83,16.67a1.29,1.29,0,0,1-.07.54h-4.6a2.06,2.06,0,0,0,2.13,1.93,2,2,0,0,0,1.74-.73l.46.6a3.06,3.06,0,0,1-2.2.86,3,3,0,0,1-3-3,3.06,3.06,0,0,1,2.93-3,2.39,2.39,0,0,1,2.54,2.4A.83.83,0,0,1,109.83,16.67Zm-4.61-.13H109a1.74,1.74,0,0,0-1.54-1.87h-.27a2,2,0,0,0-2,1.87Z"/><path id="Path_1527" data-name="Path 1527" class="cls-1" d="M117.16,16.87a2.79,2.79,0,0,1-2.67,3h-.2a2.74,2.74,0,0,1-2.2-1.06v3.8h-.8V14h.6l.2.93a2.55,2.55,0,0,1,2.27-1.07,2.87,2.87,0,0,1,2.87,2.74C117.23,16.74,117.23,16.81,117.16,16.87Zm-.73,0a2.17,2.17,0,0,0-4.34-.2v.2a2.12,2.12,0,0,0,2,2.27h.2a2.18,2.18,0,0,0,2.14-2.07Z"/><path id="Path_1528" data-name="Path 1528" class="cls-1" d="M123,15.94v3.8h-.6l-.13-1.07a2.36,2.36,0,0,1-2.14,1.14c-1.13,0-1.8-.6-1.8-1.6,0-1.27,1.2-2,2.87-2a6.46,6.46,0,0,1,1.07.06v-.4c0-.8-.6-1.2-1.47-1.2a4.27,4.27,0,0,0-1.87.47l-.26-.67a5.15,5.15,0,0,1,2.26-.53A1.9,1.9,0,0,1,123,15.61.57.57,0,0,0,123,15.94Zm-.8,1a4.17,4.17,0,0,0-.93-.07c-1.34,0-2.14.47-2.14,1.34,0,.6.4.93,1.14.93a2,2,0,0,0,2-1.93.5.5,0,0,1-.07-.27Z"/><path id="Path_1529" data-name="Path 1529" class="cls-1" d="M130.49,19v2.26h-.73V19.74H125V14h.8v5h3.13V14h.8v5Z"/><path id="Path_1530" data-name="Path 1530" class="cls-1" d="M136.56,14v5.73h-.8v-4.2c-.2.2-.33.47-.53.67L132,19.74h-.27V14h.8v4.13a3.33,3.33,0,0,1,.67-.73l3.13-3.4Z"/><path id="Path_1531" data-name="Path 1531" class="cls-1" d="M142.76,14v5.73H142v-2.2H140.5l-1.67,2.2h-.93v-.07l1.66-2.2a1.52,1.52,0,0,1-1.26-1.66,1.77,1.77,0,0,1,2-1.8Zm-.8,2.86V14.74h-1.53c-.87,0-1.27.4-1.27,1.07s.34,1.06,1.27,1.06Z"/></g><g id="Group_1375" data-name="Group 1375"><path id="Path_1532" data-name="Path 1532" class="cls-1" d="M80.69,29a4.48,4.48,0,0,1,4.46-4.54,4.57,4.57,0,0,1,3.34,1.47l-.53.53a3.46,3.46,0,0,0-2.81-1.13,3.53,3.53,0,0,0-3.6,3.53v.27A3.69,3.69,0,0,0,85,32.93h.2a3.5,3.5,0,0,0,2.87-1.47l.6.47a4.3,4.3,0,0,1-3.47,1.8,4.4,4.4,0,0,1-4.47-4.33A1.1,1.1,0,0,1,80.69,29Z"/><path id="Path_1533" data-name="Path 1533" class="cls-1" d="M90.09,27.73h4.73v5.73H94v-5h-3.2v5H90Z"/><path id="Path_1534" data-name="Path 1534" class="cls-1" d="M96.42,30.6a3,3,0,1,1,2.94,3,2.82,2.82,0,0,1-2.94-2.8Zm5.14,0a2.17,2.17,0,1,0-2.2,2.26,2.15,2.15,0,0,0,2.2-2.06Z"/><path id="Path_1535" data-name="Path 1535" class="cls-1" d="M109.83,30.53a2.8,2.8,0,0,1-2.67,3H107a2.7,2.7,0,0,1-2.2-1.07v3.8H104v-8.6h.6l.2.94A2.48,2.48,0,0,1,107,27.53a2.78,2.78,0,0,1,2.81,2.8Zm-.8.07a2.17,2.17,0,0,0-4.34-.2v.13a2.11,2.11,0,0,0,2,2.27h.2A2.2,2.2,0,0,0,109,30.73V30.6Z"/><path id="Path_1536" data-name="Path 1536" class="cls-1" d="M112.23,28.46h-1.8v-.73h4.46v.73H113v5h-.8Z"/><path id="Path_1537" data-name="Path 1537" class="cls-1" d="M120.89,27.73v5.73h-.8v-4.2c-.2.2-.33.47-.53.67l-3.2,3.53h-.27V27.73h.8v4.13a3.57,3.57,0,0,1,.67-.73l3.13-3.4Z"/><path id="Path_1538" data-name="Path 1538" class="cls-1" d="M127.49,31.86c0,1-.73,1.6-1.86,1.6H123V27.73h2.47c1.13,0,1.8.6,1.8,1.53a1.31,1.31,0,0,1-.8,1.27A1.3,1.3,0,0,1,127.49,31.86Zm-3.73-3.4V30.2h1.67c.73,0,1-.4,1-.87a.89.89,0,0,0-1-.87Zm2.93,3.34c0-.54-.33-.94-1.06-.94h-1.87v1.87h1.87c.73,0,1.06-.4,1.06-.93Z"/><path id="Path_1539" data-name="Path 1539" class="cls-1" d="M133.9,27.73v5.73h-.8V30.93h-3.21v2.53h-.8V27.73h.8V30.2h3.21V27.73Z"/><path id="Path_1540" data-name="Path 1540" class="cls-1" d="M135.5,30.6a3,3,0,1,1,2.93,3,2.81,2.81,0,0,1-2.93-2.8Zm5.13,0a2.17,2.17,0,1,0-2.2,2.26,2.19,2.19,0,0,0,2.2-2.06v-.2Z"/><path id="Path_1541" data-name="Path 1541" class="cls-1" d="M143,27.73h3.73v.73h-2.93v5H143Z"/><path id="Path_1542" data-name="Path 1542" class="cls-1" d="M147.16,30.6a3,3,0,1,1,2.94,3,2.82,2.82,0,0,1-2.94-2.8Zm5.14,0a2.17,2.17,0,1,0-2.2,2.26,2.1,2.1,0,0,0,2.2-2.06.13.13,0,0,0,0-.2Z"/></g><g id="Group_1376" data-name="Group 1376"><path id="Path_1543" data-name="Path 1543" class="cls-1" d="M87.56,47.13h0l-1.07.07-4.2-4.13V47.2h-.87V38.4h.87v4.13l4-4.13h1.07v.07L83.15,42.8Z"/><path id="Path_1544" data-name="Path 1544" class="cls-1" d="M93.36,41.4v5.73h-.8v-4.2c-.2.2-.34.47-.54.67l-3.2,3.53h-.26V41.4h.8v4.13A3.83,3.83,0,0,1,90,44.8l3.14-3.4Z"/><path id="Path_1545" data-name="Path 1545" class="cls-1" d="M99.89,47.07h0l-1,.06-2.73-2.66v2.66h-.8V41.4h.8v2.53l2.46-2.53h.94v.07L96.82,44.2Z"/><path id="Path_1546" data-name="Path 1546" class="cls-1" d="M105.62,44.07a1.41,1.41,0,0,1-.06.53H101a2.06,2.06,0,0,0,2.13,1.93,2,2,0,0,0,1.73-.73l.47.6a3.07,3.07,0,0,1-2.2.87,3,3,0,0,1-.07-6,2.39,2.39,0,0,1,2.54,2.4A.91.91,0,0,1,105.62,44.07Zm-4.6-.14h3.8a1.71,1.71,0,0,0-1.53-1.86H103a2,2,0,0,0-2,1.86Z"/><path id="Path_1547" data-name="Path 1547" class="cls-1" d="M113,44.27a2.8,2.8,0,0,1-2.67,3h-.2A2.7,2.7,0,0,1,108,46.2V50h-.8V41.4h.6l.2.93a2.5,2.5,0,0,1,2.27-1.06,2.78,2.78,0,0,1,2.8,2.8Zm-.8,0a2.17,2.17,0,0,0-4.34-.2v.2a2.1,2.1,0,0,0,2,2.26h.2a2.18,2.18,0,0,0,2.14-2.06v-.2Z"/><path id="Path_1548" data-name="Path 1548" class="cls-1" d="M118.76,43.33v3.8h-.6L118,46.07a2.35,2.35,0,0,1-2.14,1.13c-1.13,0-1.8-.6-1.8-1.6,0-1.27,1.2-2,2.87-2a5.55,5.55,0,0,1,1.07.07v-.4c0-.8-.6-1.2-1.47-1.2a4.41,4.41,0,0,0-1.87.46l-.26-.66a5,5,0,0,1,2.26-.54A1.9,1.9,0,0,1,118.83,43,.48.48,0,0,0,118.76,43.33Zm-.8,1a4.85,4.85,0,0,0-.93-.06c-1.34,0-2.14.46-2.14,1.33,0,.6.4.93,1.14.93a2,2,0,0,0,2-2,.23.23,0,0,1-.07-.2Z"/></g></g></g></svg>