<svg id="Слой_1" data-name="Слой 1" xmlns="http://www.w3.org/2000/svg" viewBox="0 0 132.63 60"><title>leadcode-partner</title><path d="M5.69,41.72l-2,4.64a.44.44,0,0,1-.08.11.28.28,0,0,1-.15,0H3l.66-1.43L2.17,41.72h.68a.36.36,0,0,1,.07.1l1,2.26a2.81,2.81,0,0,1,.1.31.86.86,0,0,1,.1-.32L5,41.84a.24.24,0,0,1,.07-.12h.61Z"/><path d="M16.07,28.08l2.51,2.75a.27.27,0,0,1,.1.17.24.24,0,0,1-.05.18.12.12,0,0,1-.05.05A9.37,9.37,0,0,1,11.63,34a10.26,10.26,0,0,1-4-.7,10.27,10.27,0,0,1,0-19.14,10.28,10.28,0,0,1,4-.69h0a10.58,10.58,0,0,1,7,2.77.3.3,0,0,1,.06.18.26.26,0,0,1-.09.17l-2.51,2.74a.27.27,0,0,1-.15.11.2.2,0,0,1-.18,0,.19.19,0,0,1-.07-.08,5.48,5.48,0,0,0-1.85-1.24,5.35,5.35,0,0,0-2.2-.38,5.77,5.77,0,0,0-5.7,5.84v.11a5.81,5.81,0,0,0,5.59,6h.11a5.44,5.44,0,0,0,2.19-.38,5.59,5.59,0,0,0,1.86-1.25.22.22,0,0,1,.07-.06.16.16,0,0,1,.09,0h.09L16,28l.06.07"/><path d="M37,13.58h4.28a.26.26,0,0,1,.19.06.28.28,0,0,1,.09.19V25.15c0,3.82-1.79,8.83-9,8.83s-9-5-9-8.83V13.86a.26.26,0,0,1,.07-.19.21.21,0,0,1,.18-.09h4.31a.17.17,0,0,1,.1,0l.09.05a.21.21,0,0,1,.06.08.23.23,0,0,1,0,.11V25.15c0,3.16,1.63,4.56,4.19,4.56s4.08-1.37,4.19-4.56V13.86a.26.26,0,0,1,.07-.19.21.21,0,0,1,.18-.09h0"/><path d="M60.48,13.86v3.7a.27.27,0,0,1-.07.2.31.31,0,0,1-.18.09H55.79a.24.24,0,0,0-.09.06.16.16,0,0,0-.06.08.17.17,0,0,0,0,.1V33.61a.26.26,0,0,1-.07.19.27.27,0,0,1-.18.1H51.05a.26.26,0,0,1-.19-.07.25.25,0,0,1-.09-.19V18.14a.43.43,0,0,0,0-.11.41.41,0,0,0,0-.09.24.24,0,0,0-.08-.06.19.19,0,0,0-.1,0H46.15a.26.26,0,0,1-.2-.07.28.28,0,0,1-.09-.18V13.86a.26.26,0,0,1,.07-.19.23.23,0,0,1,.18-.09H60.2a.23.23,0,0,1,.19.07.31.31,0,0,1,.09.18v0"/><path d="M83,25.09c-.55,1-1.14,2.2-1.85,3.35.51.46,1,.84,1.28,1.12a.38.38,0,0,1,.14.37l-.49,3.64a.15.15,0,0,1,0,.13.24.24,0,0,1-.09.08.3.3,0,0,1-.13,0,.24.24,0,0,1-.11-.06C81,33.17,80,32.37,78.78,31.4A8.68,8.68,0,0,1,72.57,34C68.87,34,65,32.32,65,28.07A5.35,5.35,0,0,1,68.39,23a5.37,5.37,0,0,1-1.83-4.08c0-2.59,2.25-5.41,6.64-5.41,4.61,0,6.44,2.74,6.44,5.18,0,2.83-2.22,4.14-4.19,4.91l2.17,1.85c.23-.4.4-.74.54-1a.29.29,0,0,1,.14-.15.31.31,0,0,1,.21,0l4.27.51c.24,0,.32.12.22.32Zm-7.73,3.5c-.83-.69-1.79-1.42-2.79-2.19l-1.28-1a2.35,2.35,0,0,0-1.31,2.17c0,1.36,1.36,2.13,2.82,2.13a3.9,3.9,0,0,0,2.56-1.1Zm-3.84-9.28c0,.65.54,1.31,1.36,2.05,1.37-.63,2-1.32,2-2.2s-.63-1.39-1.68-1.39a1.55,1.55,0,0,0-1.7,1.36,1.09,1.09,0,0,0,0,.18"/><path d="M107.93,22.53v1.19c0,5.7-3.73,10.26-9.68,10.26a10.25,10.25,0,1,1-.59-20.49h.59a10.49,10.49,0,0,1,7.32,2.79.28.28,0,0,1,.07.09.27.27,0,0,1,0,.12.26.26,0,0,1,0,.11.28.28,0,0,1-.07.09l-2.74,2.74-.07.06-.09,0h-.1l-.09,0s0,0,0-.05a5.79,5.79,0,0,0-1.93-1.27,6,6,0,0,0-2.26-.41c-3.3,0-5.41,2.71-5.41,6s2.13,6,5.41,6,4.73-1.91,4.87-3.48a.28.28,0,0,0,0-.09.2.2,0,0,0,0-.08A.13.13,0,0,0,103,26a.2.2,0,0,0-.08,0H98.87a.26.26,0,0,1-.19-.07.24.24,0,0,1-.09-.18V22.53a.3.3,0,0,1,.06-.2.34.34,0,0,1,.19-.09h8.8a.29.29,0,0,1,.2.07.31.31,0,0,1,.09.18v0"/><path d="M121.33,13.5a9.8,9.8,0,0,1,10.23,10.23,10.24,10.24,0,1,1-20.48,0C111.08,17.54,115.43,13.5,121.33,13.5Zm0,4.27c-2.74,0-5.41,1.63-5.41,6s2.68,6,5.41,6,5.39-1.63,5.39-6S124,17.77,121.33,17.77Z"/><path d="M8.65,42.35l-.06.06a.11.11,0,0,1-.08,0,.21.21,0,0,1-.11,0l-.16-.1a1.15,1.15,0,0,0-.23-.1,1,1,0,0,0-.34,0,1,1,0,0,0-.47.09.79.79,0,0,0-.33.27,1.11,1.11,0,0,0-.21.42,2.76,2.76,0,0,0-.06.57,2.17,2.17,0,0,0,.07.57,1.56,1.56,0,0,0,.21.43.93.93,0,0,0,.33.26,1.12,1.12,0,0,0,.44.09,1.14,1.14,0,0,0,.62-.18l.16-.13h.1l.06,0a.1.1,0,0,1,.05,0l.18.23a1.27,1.27,0,0,1-.27.25,1.65,1.65,0,0,1-.32.18,1.36,1.36,0,0,1-.36.1,2.41,2.41,0,0,1-.38,0,1.51,1.51,0,0,1-.63-.13,1.36,1.36,0,0,1-.5-.36A1.73,1.73,0,0,1,6,44.27a2.66,2.66,0,0,1,0-1.53,1.68,1.68,0,0,1,.33-.58,1.55,1.55,0,0,1,.53-.39,1.78,1.78,0,0,1,.72-.14,1.69,1.69,0,0,1,.67.12,1.6,1.6,0,0,1,.51.35Z"/><path d="M12.71,45.3h-.66V42.21H10.92a9.62,9.62,0,0,1-.13,1.19,5.12,5.12,0,0,1-.2.84,2.44,2.44,0,0,1-.26.57,1.62,1.62,0,0,1-.31.33.89.89,0,0,1-.34.16,1.27,1.27,0,0,1-.34,0c-.2,0-.3,0-.3-.09v-.39h.18a.93.93,0,0,0,.24,0,.72.72,0,0,0,.25-.16,1.56,1.56,0,0,0,.23-.34,3.49,3.49,0,0,0,.2-.57,7.34,7.34,0,0,0,.16-.84c0-.33.08-.72.1-1.18h2.32V45.3Z"/><path d="M16.78,41.72l-2,4.65a.24.24,0,0,1-.09.11.18.18,0,0,1-.14,0h-.47l.66-1.44-1.48-3.36h.68a.24.24,0,0,1,.06.09l1,2.27c0,.1.07.2.09.3a.82.82,0,0,1,.11-.31l.9-2.23a.23.23,0,0,1,.1-.12h.61Z"/><path d="M19.66,42.19H18V45.3h-.65V41.72h2.33v.47Z"/><path d="M23.34,41.72v3.59h-.63V42.55l-.07.14-.06.11-1.74,2.35a.52.52,0,0,1-.1.11.21.21,0,0,1-.13.05h-.36V41.72h.64v2.74l.07-.13,0-.09,1.78-2.37a.47.47,0,0,1,.06-.15h.51Z"/><path d="M29.15,45.3h-.64V42.19H26.79V45.3h-.67V41.72h3v3.59Z"/><path d="M31.65,41.66a1.69,1.69,0,0,1,.71.13,1.45,1.45,0,0,1,.54.37,1.8,1.8,0,0,1,.35.58,2.66,2.66,0,0,1,0,1.53,1.8,1.8,0,0,1-.35.58,1.45,1.45,0,0,1-.54.37,2,2,0,0,1-1.42,0,1.53,1.53,0,0,1-.54-.37,1.84,1.84,0,0,1-.34-.61,2.53,2.53,0,0,1,0-1.54,1.57,1.57,0,0,1,.34-.57,1.53,1.53,0,0,1,.54-.37,1.73,1.73,0,0,1,.71-.1Zm0,3.2a1,1,0,0,0,.45-.08,1,1,0,0,0,.35-.28,2,2,0,0,0,.26-1,2.07,2.07,0,0,0-.26-1,1.06,1.06,0,0,0-.35-.28,1,1,0,0,0-.45-.08,1.27,1.27,0,0,0-.47.09,1.09,1.09,0,0,0-.33.27,1,1,0,0,0-.2.43,2.22,2.22,0,0,0-.07.57,1.58,1.58,0,0,0,.27,1,.84.84,0,0,0,.36.28,1,1,0,0,0,.44.08"/><path d="M39.12,45.3h-.63V42.21H37.36a11.7,11.7,0,0,1-.13,1.19,5.2,5.2,0,0,1-.22.84,2.12,2.12,0,0,1-.27.57,1.34,1.34,0,0,1-.3.33.89.89,0,0,1-.34.16,1.32,1.32,0,0,1-.34,0c-.2,0-.3,0-.3-.09v-.39h.18a1,1,0,0,0,.24,0,.69.69,0,0,0,.3-.17,1.33,1.33,0,0,0,.22-.34,2.27,2.27,0,0,0,.2-.57,5.79,5.79,0,0,0,.16-.83,11.59,11.59,0,0,0,.1-1.19h2.29v3.59Z"/><path d="M40,42.22a2,2,0,0,1,.64-.43,1.88,1.88,0,0,1,.77-.14,1.29,1.29,0,0,1,.54.1,1.05,1.05,0,0,1,.39.27,1.22,1.22,0,0,1,.24.43,1.76,1.76,0,0,1,.09.55v2.3h-.3a.33.33,0,0,1-.14,0,.2.2,0,0,1-.08-.12l-.06-.34-.28.23a1.38,1.38,0,0,1-.29.17,1.63,1.63,0,0,1-.31.11h-.38a1.34,1.34,0,0,1-.4-.06,1,1,0,0,1-.31-.18.73.73,0,0,1-.22-.3,1,1,0,0,1-.09-.43A.88.88,0,0,1,40,44a1,1,0,0,1,.4-.33A2.34,2.34,0,0,1,41,43.4a4.88,4.88,0,0,1,1-.11V43a1,1,0,0,0-.18-.63.81.81,0,0,0-.24-.17.7.7,0,0,0-.29,0,1.07,1.07,0,0,0-.4.05,1.3,1.3,0,0,0-.26.14l-.21.13a.2.2,0,0,1-.1.08h-.1l-.08-.08Zm2,1.46a6.34,6.34,0,0,0-.75.07,2.85,2.85,0,0,0-.5.14.71.71,0,0,0-.27.21.46.46,0,0,0-.09.27.64.64,0,0,0,0,.24.45.45,0,0,0,.13.17.48.48,0,0,0,.19.09.49.49,0,0,0,.24,0,.76.76,0,0,0,.3,0,.82.82,0,0,0,.26-.1,1.14,1.14,0,0,0,.23-.15l.22-.19Z"/><path d="M43.42,42.08a1.54,1.54,0,0,1,.49-.3,1.65,1.65,0,0,1,.69-.12,2.25,2.25,0,0,1,.58.08,1.65,1.65,0,0,1,.42.21,1,1,0,0,1,.25.3.64.64,0,0,1,.08.36.41.41,0,0,1,0,.22.67.67,0,0,1-.1.23,1.26,1.26,0,0,1-.2.2,1,1,0,0,1-.31.15,1.17,1.17,0,0,1,.54.33.85.85,0,0,1,.2.55.89.89,0,0,1-.12.45,1.22,1.22,0,0,1-.3.34,1.32,1.32,0,0,1-.45.21,1.82,1.82,0,0,1-.52.08,2.16,2.16,0,0,1-.36,0,2.3,2.3,0,0,1-.35-.1,1.78,1.78,0,0,1-.36-.19,1,1,0,0,1-.26-.25l.17-.22a.12.12,0,0,1,.05,0h.07a.21.21,0,0,1,.13.05l.18.12a1.26,1.26,0,0,0,.26.13,1.3,1.3,0,0,0,.73,0,.94.94,0,0,0,.26-.14.49.49,0,0,0,.16-.21.74.74,0,0,0,0-.25.54.54,0,0,0-.06-.25.55.55,0,0,0-.16-.18,1.07,1.07,0,0,0-.67-.17h-.39v-.42h.44a1,1,0,0,0,.35,0,.81.81,0,0,0,.27-.11.46.46,0,0,0,.17-.17.47.47,0,0,0,0-.26.46.46,0,0,0,0-.2.5.5,0,0,0-.15-.17.66.66,0,0,0-.24-.11,1.07,1.07,0,0,0-.4-.05,1.47,1.47,0,0,0-.36,0,1.06,1.06,0,0,0-.25.09l-.17.1H43.6a.18.18,0,0,1-.07-.08Z"/><path d="M49.73,44.8a1.22,1.22,0,0,1-.27.24,1.69,1.69,0,0,1-.36.17,1.64,1.64,0,0,1-.38.1h-.4a1.79,1.79,0,0,1-.68-.13,1.34,1.34,0,0,1-.57-.32,1.69,1.69,0,0,1-.33-.62,2.41,2.41,0,0,1-.12-.84,1.84,1.84,0,0,1,.11-.7,1.57,1.57,0,0,1,.34-.57,1.3,1.3,0,0,1,.52-.38,2,2,0,0,1,.71-.14,1.71,1.71,0,0,1,.59.11,1.52,1.52,0,0,1,.48.31,1.45,1.45,0,0,1,.31.5,1.77,1.77,0,0,1,.11.68.34.34,0,0,1,0,.2.1.1,0,0,1,0,0,.07.07,0,0,1-.06,0H47.23a2,2,0,0,0,.09.6,1.32,1.32,0,0,0,.23.42,1.07,1.07,0,0,0,.35.25,1.26,1.26,0,0,0,.47.08,1.18,1.18,0,0,0,.41-.05,1.48,1.48,0,0,0,.29-.12l.21-.11a.24.24,0,0,1,.14-.05h.07l0,0Zm-.51-1.68a1.39,1.39,0,0,0-.06-.4A.78.78,0,0,0,49,42.4a1,1,0,0,0-.29-.2,1.07,1.07,0,0,0-1.1.19,1.26,1.26,0,0,0-.33.73Z"/><path d="M51.17,42.27a1.73,1.73,0,0,1,.52-.45,1.37,1.37,0,0,1,.68-.17,1.31,1.31,0,0,1,.56.12,1.13,1.13,0,0,1,.43.35,1.54,1.54,0,0,1,.27.58,3,3,0,0,1,.09.79,2.27,2.27,0,0,1-.11.73,1.69,1.69,0,0,1-.3.6,1.44,1.44,0,0,1-.49.39,1.47,1.47,0,0,1-.65.15,1.56,1.56,0,0,1-.57-.11,1.39,1.39,0,0,1-.41-.31v1.59h-.63v-4.8h.38a.14.14,0,0,1,.11,0,.21.21,0,0,1,.06.1h0Zm0,2.17a1,1,0,0,0,.37.33,1.27,1.27,0,0,0,.46.1.8.8,0,0,0,.43-.09.82.82,0,0,0,.34-.27,1.69,1.69,0,0,0,.27-1,2.48,2.48,0,0,0-.06-.61,1.32,1.32,0,0,0-.17-.41.73.73,0,0,0-.29-.23.84.84,0,0,0-.38-.08.93.93,0,0,0-.54.14,1.64,1.64,0,0,0-.43.4v1.74Z"/><path d="M57.53,41.72v3.59h-.64V43.63H55.16v1.68h-.63V41.72h.64v1.44H56.9V41.72Z"/><path d="M60,41.66a1.9,1.9,0,0,1,.71.13,1.58,1.58,0,0,1,.54.37,1.7,1.7,0,0,1,.34.58,2.53,2.53,0,0,1,0,1.54,1.57,1.57,0,0,1-.34.57,1.45,1.45,0,0,1-.54.37,1.93,1.93,0,0,1-1.42,0,1.38,1.38,0,0,1-.52-.37,1.57,1.57,0,0,1-.36-.61,2.5,2.5,0,0,1,0-1.53,1.54,1.54,0,0,1,.36-.55,1.58,1.58,0,0,1,.54-.37,1.8,1.8,0,0,1,.69-.13Zm0,3.2a1,1,0,0,0,.44-.08,1,1,0,0,0,.36-.28,2,2,0,0,0,.26-1,2.07,2.07,0,0,0-.26-1,1.09,1.09,0,0,0-.36-.28,1,1,0,0,0-.44-.08,1.27,1.27,0,0,0-.47.09,1,1,0,0,0-.33.27,1.23,1.23,0,0,0-.21.43,2.76,2.76,0,0,0-.06.57,1.58,1.58,0,0,0,.27,1,.87.87,0,0,0,.35.28,1,1,0,0,0,.45.08"/><path d="M65.62,41.73v3.58H65V42.56l-.07.13-.06.11-1.74,2.35a.36.36,0,0,1-.1.11.18.18,0,0,1-.13.06h-.36V41.73h.64v2.73l.07-.13,0-.09L65,41.89a.34.34,0,0,1,.1-.16.15.15,0,0,1,.13,0Zm-1.5-.84h.24a.36.36,0,0,0,.16-.11.37.37,0,0,0,.09-.19,1.41,1.41,0,0,0,0-.29H65l.06,0a.08.08,0,0,1,0,0,.17.17,0,0,1,0,.14.7.7,0,0,1-.06.32.79.79,0,0,1-.21.24.86.86,0,0,1-.32.15,1.71,1.71,0,0,1-.84,0,1,1,0,0,1-.33-.15.91.91,0,0,1-.2-.24.88.88,0,0,1-.07-.32.33.33,0,0,1,0-.14.1.1,0,0,1,.05,0l.06,0h.36a1.41,1.41,0,0,0,0,.29.44.44,0,0,0,.1.19.31.31,0,0,0,.16.11A.65.65,0,0,0,64.12,40.89Z"/><path d="M69,42.27a1.77,1.77,0,0,1,.53-.45,1.35,1.35,0,0,1,.68-.17,1.38,1.38,0,0,1,.56.12,1.1,1.1,0,0,1,.42.35,1.54,1.54,0,0,1,.27.58,2.63,2.63,0,0,1,.09.79,2.26,2.26,0,0,1-.1.73,1.9,1.9,0,0,1-.31.6,1.46,1.46,0,0,1-1.13.54,1.56,1.56,0,0,1-.57-.11,1.39,1.39,0,0,1-.41-.31v1.59h-.62v-4.8h.42s.07,0,.11,0a.14.14,0,0,1,0,.1h0Zm0,2.17a1.1,1.1,0,0,0,.38.33,1.19,1.19,0,0,0,.46.1.82.82,0,0,0,.43-.09.89.89,0,0,0,.34-.27,1.69,1.69,0,0,0,.26-1,2.43,2.43,0,0,0-.05-.6,1.14,1.14,0,0,0-.18-.41.7.7,0,0,0-.28-.23.91.91,0,0,0-.39-.08,1,1,0,0,0-.54.14,1.6,1.6,0,0,0-.42.4v1.74Z"/><path d="M75.31,44.8A1,1,0,0,1,75,45a1.49,1.49,0,0,1-.36.17,1.64,1.64,0,0,1-.38.1h-.39a1.8,1.8,0,0,1-.69-.13,1.42,1.42,0,0,1-.54-.36,1.76,1.76,0,0,1-.36-.58,2.66,2.66,0,0,1-.11-.84,1.84,1.84,0,0,1,.11-.7,1.73,1.73,0,0,1,.34-.57,1.44,1.44,0,0,1,.53-.38,1.61,1.61,0,0,1,.69-.09,1.51,1.51,0,0,1,.59.11,1.26,1.26,0,0,1,.48.3,1.49,1.49,0,0,1,.31.51,1.69,1.69,0,0,1,.11.67.34.34,0,0,1,0,.2.12.12,0,0,1-.11,0H72.81a2,2,0,0,0,.09.6,1.32,1.32,0,0,0,.23.42,1,1,0,0,0,.82.33,1.15,1.15,0,0,0,.41-.05l.29-.11.21-.12a.24.24,0,0,1,.14,0h.07a.12.12,0,0,1,.05,0Zm-.51-1.68a1.15,1.15,0,0,0-.08-.41,1,1,0,0,0-.18-.32,1,1,0,0,0-.29-.2,1,1,0,0,0-.58,0,1.08,1.08,0,0,0-.53.25,1.22,1.22,0,0,0-.32.72h2Z"/><path d="M75.91,42.08a1.54,1.54,0,0,1,.49-.3,1.62,1.62,0,0,1,.69-.12,2.25,2.25,0,0,1,.58.08,1.65,1.65,0,0,1,.42.21,1,1,0,0,1,.25.3.73.73,0,0,1,.08.36.81.81,0,0,1,0,.22.7.7,0,0,1-.11.23.76.76,0,0,1-.2.2.85.85,0,0,1-.3.15,1.14,1.14,0,0,1,.53.33.81.81,0,0,1,.21.55.89.89,0,0,1-.12.45,1.14,1.14,0,0,1-.35.34,1.32,1.32,0,0,1-.45.21,3.25,3.25,0,0,1-.88.08,1.54,1.54,0,0,1-.35-.15,1.11,1.11,0,0,1-.29-.14,1.27,1.27,0,0,1-.27-.25l.18-.22,0,0h.06a.24.24,0,0,1,.14.05l.17.12a1.58,1.58,0,0,0,.26.13,1.3,1.3,0,0,0,.73,0,.82.82,0,0,0,.26-.14.7.7,0,0,0,.18-.2.6.6,0,0,0,.06-.27.53.53,0,0,0-.06-.24.55.55,0,0,0-.16-.18,1.07,1.07,0,0,0-.67-.17h-.43v-.42H77a2,2,0,0,0,.35,0,.81.81,0,0,0,.27-.11.46.46,0,0,0,.17-.17.39.39,0,0,0,.06-.21.54.54,0,0,0-.05-.21.57.57,0,0,0-.15-.16.66.66,0,0,0-.24-.11,1,1,0,0,0-.34,0,1.47,1.47,0,0,0-.36,0,1.06,1.06,0,0,0-.25.09l-.17.09a.21.21,0,0,1-.11,0h-.08s-.05,0-.06-.07Z"/><path d="M81.51,41.89a.48.48,0,0,1,.12-.17h.63l-.93,1.37a1.24,1.24,0,0,1-.18.22.61.61,0,0,1-.22.13.92.92,0,0,1,.28.14.86.86,0,0,1,.21.26l.94,1.48H82a.42.42,0,0,1-.25,0,.39.39,0,0,1-.17-.19L80.85,44a.56.56,0,0,0-.22-.21.48.48,0,0,0-.29-.06H80V45.3h-.64V41.72H80v1.55h.34a.58.58,0,0,0,.26-.06.65.65,0,0,0,.19-.18Z"/><path d="M85.76,44.8a1,1,0,0,1-.27.24,1.62,1.62,0,0,1-.35.17,1.86,1.86,0,0,1-.39.1h-.39a1.8,1.8,0,0,1-.69-.13,1.45,1.45,0,0,1-.55-.37,1.75,1.75,0,0,1-.35-.57,2.38,2.38,0,0,1-.12-.84,1.84,1.84,0,0,1,.11-.7,1.73,1.73,0,0,1,.34-.57,1.52,1.52,0,0,1,.53-.38,1.86,1.86,0,0,1,.7-.14,1.77,1.77,0,0,1,.6.11,1.48,1.48,0,0,1,.47.31,1.55,1.55,0,0,1,.31.5,2,2,0,0,1,.12.68.67.67,0,0,1,0,.2l0,0a.09.09,0,0,1-.07,0H83.26a2,2,0,0,0,.1.6,1,1,0,0,0,.23.42.9.9,0,0,0,.35.25,1.21,1.21,0,0,0,.46.08,1.13,1.13,0,0,0,.41-.05l.29-.11.21-.12a.3.3,0,0,1,.15-.05h.06a.12.12,0,0,1,0,0Zm-.51-1.68a1.39,1.39,0,0,0-.06-.4A.78.78,0,0,0,85,42.4a1,1,0,0,0-.29-.2,1.11,1.11,0,0,0-.57-.06,1.13,1.13,0,0,0-.53.25,1.26,1.26,0,0,0-.33.73Z"/><path d="M91.48,41.72v3.59h-.63V42.55l-.07.14-.07.11L89,45.15a.52.52,0,0,1-.1.11.21.21,0,0,1-.13.05h-.39V41.72H89v2.74l.07-.13.06-.11,1.74-2.35a.35.35,0,0,1,.1-.11.19.19,0,0,1,.13,0h.38Z"/><path d="M96.62,42.19H94.94V45.3h-.63V41.72h2.33v.48Z"/><path d="M97.82,42.27a1.9,1.9,0,0,1,.53-.45,1.35,1.35,0,0,1,.68-.17,1.38,1.38,0,0,1,.56.12,1.21,1.21,0,0,1,.43.35,1.69,1.69,0,0,1,.26.58,3,3,0,0,1,.1.79,2.58,2.58,0,0,1-.11.73,1.9,1.9,0,0,1-.31.6,1.46,1.46,0,0,1-1.13.54,1.51,1.51,0,0,1-.56-.11,1.43,1.43,0,0,1-.42-.31v1.59h-.64v-4.8h.38a.14.14,0,0,1,.11,0,.21.21,0,0,1,.06.1Zm0,2.17a1.1,1.1,0,0,0,.38.33,1.19,1.19,0,0,0,.46.1.82.82,0,0,0,.43-.09.89.89,0,0,0,.34-.27,1.76,1.76,0,0,0,.27-1,3.08,3.08,0,0,0-.06-.61,1.14,1.14,0,0,0-.18-.41.7.7,0,0,0-.28-.23.88.88,0,0,0-.39-.08,1,1,0,0,0-.54.14,1.6,1.6,0,0,0-.42.4v1.74Z"/><path d="M101.1,42.22a2,2,0,0,1,.64-.43,1.82,1.82,0,0,1,.77-.14,1.22,1.22,0,0,1,.53.1,1.09,1.09,0,0,1,.4.27,1.22,1.22,0,0,1,.24.43,1.5,1.5,0,0,1,.08.55v2.3h-.27a.38.38,0,0,1-.15,0,.24.24,0,0,1-.07-.12l-.06-.37-.28.24a1.56,1.56,0,0,1-.28.16,1.09,1.09,0,0,1-.7.11,1.32,1.32,0,0,1-.39-.06.76.76,0,0,1-.32-.17.93.93,0,0,1-.22-.3.92.92,0,0,1-.08-.43.73.73,0,0,1,.12-.41,1,1,0,0,1,.37-.35,2.49,2.49,0,0,1,.69-.25,4.54,4.54,0,0,1,1-.11V43a1,1,0,0,0-.18-.63.81.81,0,0,0-.24-.17.7.7,0,0,0-.29,0,1.07,1.07,0,0,0-.4.05,1.3,1.3,0,0,0-.26.14l-.26.12a.23.23,0,0,1-.16.06h-.11l-.08-.08Zm2,1.46a6,6,0,0,0-.74.07,3.23,3.23,0,0,0-.51.14.79.79,0,0,0-.27.21.46.46,0,0,0-.09.27.64.64,0,0,0,0,.24.43.43,0,0,0,.12.17.55.55,0,0,0,.19.09.49.49,0,0,0,.24,0,.76.76,0,0,0,.3,0,.93.93,0,0,0,.26-.1,1.14,1.14,0,0,0,.23-.15,2.09,2.09,0,0,0,.22-.2Z"/><path d="M106,41.72a2.12,2.12,0,0,1,.57.07A1.18,1.18,0,0,1,107,42a.64.64,0,0,1,.23.26,1,1,0,0,1,.07.34,1,1,0,0,1,0,.24.88.88,0,0,1-.11.24.73.73,0,0,1-.22.21,1.06,1.06,0,0,1-.39.13,1.24,1.24,0,0,1,.64.28,1,1,0,0,1,.16.26.78.78,0,0,1,0,.3.9.9,0,0,1-.1.45A1,1,0,0,1,107,45a1.38,1.38,0,0,1-.43.19,1.88,1.88,0,0,1-.53.07h-1.38V41.72H106Zm-.7.43v1.12H106a.7.7,0,0,0,.29,0,.72.72,0,0,0,.23-.12.48.48,0,0,0,.15-.2.39.39,0,0,0,0-.24.31.31,0,0,0,0-.19.39.39,0,0,0-.11-.17,1,1,0,0,0-.23-.12,1.32,1.32,0,0,0-.34,0h-.73Zm.77,2.72a.8.8,0,0,0,.56-.16.65.65,0,0,0,.16-.21.51.51,0,0,0,0-.25.45.45,0,0,0,0-.23.44.44,0,0,0-.12-.18.57.57,0,0,0-.23-.12,1.5,1.5,0,0,0-.37,0h-.77v1.19h.73Z"/><path d="M111.31,41.72v3.59h-.63V42.55l-.07.14-.06.11-1.74,2.35a.52.52,0,0,1-.1.11.19.19,0,0,1-.13.05h-.34V41.72h.63v2.74l.07-.13.07-.11,1.73-2.35a.52.52,0,0,1,.1-.11.24.24,0,0,1,.14,0h.33Z"/><path d="M112.91,42.27a1.9,1.9,0,0,1,.53-.45,1.35,1.35,0,0,1,.68-.17,1.38,1.38,0,0,1,.56.12,1.1,1.1,0,0,1,.42.35,1.54,1.54,0,0,1,.27.58,2.63,2.63,0,0,1,.09.79,2.26,2.26,0,0,1-.1.73,1.9,1.9,0,0,1-.31.6,1.46,1.46,0,0,1-1.14.54,1.51,1.51,0,0,1-.56-.11,1.43,1.43,0,0,1-.42-.31v1.59h-.64v-4.8h.38a.14.14,0,0,1,.11,0,.21.21,0,0,1,.06.1Zm0,2.17a1.1,1.1,0,0,0,.38.33,1.19,1.19,0,0,0,.46.1.82.82,0,0,0,.43-.09.89.89,0,0,0,.34-.27,1.76,1.76,0,0,0,.27-1,3.08,3.08,0,0,0-.06-.61,1.14,1.14,0,0,0-.18-.41.7.7,0,0,0-.28-.23.91.91,0,0,0-.39-.08,1,1,0,0,0-.54.14,1.6,1.6,0,0,0-.42.4v1.74Z"/><path d="M117.79,41.66a1.75,1.75,0,0,1,.71.13,1.53,1.53,0,0,1,.54.37,1.62,1.62,0,0,1,.34.58,2.5,2.5,0,0,1,0,1.53,1.52,1.52,0,0,1-.88.95,2,2,0,0,1-1.42,0,1.45,1.45,0,0,1-.54-.37,1.7,1.7,0,0,1-.35-.61,2.53,2.53,0,0,1,0-1.54,1.6,1.6,0,0,1,.35-.57,1.45,1.45,0,0,1,.54-.37,1.7,1.7,0,0,1,.71-.1Zm0,3.2a1,1,0,0,0,.44-.08.87.87,0,0,0,.35-.28,1.94,1.94,0,0,0,.27-1,2,2,0,0,0-.27-1,.87.87,0,0,0-.35-.28,1,1,0,0,0-.44-.08,1.27,1.27,0,0,0-.47.09,1,1,0,0,0-.34.27,1.3,1.3,0,0,0-.2.43,2.21,2.21,0,0,0-.06.57,1.64,1.64,0,0,0,.26,1,1,1,0,0,0,.81.36"/><path d="M121.64,41.72a2.78,2.78,0,0,1,.57.07,1,1,0,0,1,.38.19.71.71,0,0,1,.23.26.8.8,0,0,1,.07.34,1,1,0,0,1,0,.24.66.66,0,0,1-.11.24.63.63,0,0,1-.22.21.89.89,0,0,1-.34.16,1.24,1.24,0,0,1,.63.28A.87.87,0,0,1,123,44a.67.67,0,0,1,0,.31.91.91,0,0,1-.1.46.86.86,0,0,1-.28.32,1.18,1.18,0,0,1-.43.19,1.88,1.88,0,0,1-.53.07h-1.38V41.73Zm-.7.43v1.13h.68a1,1,0,0,0,.3-.05.59.59,0,0,0,.22-.12.53.53,0,0,0,.16-.2,1.06,1.06,0,0,0,0-.43.66.66,0,0,0-.12-.17.61.61,0,0,0-.23-.11,1,1,0,0,0-.34-.05Zm.7,2.71a.86.86,0,0,0,.56-.17.53.53,0,0,0,.16-.2.55.55,0,0,0,0-.25.45.45,0,0,0,0-.23.39.39,0,0,0-.12-.19.66.66,0,0,0-.24-.11,1.36,1.36,0,0,0-.36-.05h-.78v1.19h.74Z"/><path d="M126,41.89a.33.33,0,0,1,.14-.12.22.22,0,0,1,.17-.05h.49l-1,1.36a1.28,1.28,0,0,1-.17.22.59.59,0,0,1-.23.13.76.76,0,0,1,.28.15.72.72,0,0,1,.21.25l.94,1.48h-.43a.39.39,0,0,1-.24-.05.42.42,0,0,1-.18-.17l-.7-1.11a.53.53,0,0,0-.21-.21.59.59,0,0,0-.29-.07h-.39v1.62h-.63v-3.6h.63v1.55h.35a.37.37,0,0,0,.25-.06.41.41,0,0,0,.19-.18Z"/><path d="M130.25,44.8A1.08,1.08,0,0,1,130,45a1.62,1.62,0,0,1-.35.17,1.78,1.78,0,0,1-.38.1h-.4a1.84,1.84,0,0,1-.69-.13,1.41,1.41,0,0,1-.54-.37,1.47,1.47,0,0,1-.35-.57,2.42,2.42,0,0,1-.13-.84,2.06,2.06,0,0,1,.12-.7,1.7,1.7,0,0,1,.33-.57,1.52,1.52,0,0,1,.53-.38,1.91,1.91,0,0,1,.71-.14,1.71,1.71,0,0,1,.59.11,1.52,1.52,0,0,1,.48.31,1.74,1.74,0,0,1,.31.5,2,2,0,0,1,.11.68.34.34,0,0,1,0,.2.1.1,0,0,1-.05,0,.07.07,0,0,1-.06,0h-2.4a2,2,0,0,0,.09.6,1.32,1.32,0,0,0,.23.42,1.07,1.07,0,0,0,.35.25,1.24,1.24,0,0,0,.46.08,1.13,1.13,0,0,0,.41-.05,2.65,2.65,0,0,0,.3-.11l.21-.12a.24.24,0,0,1,.14-.05h.07s0,0,.05,0Zm-.51-1.68a1.39,1.39,0,0,0-.06-.4,1,1,0,0,0-.18-.31.86.86,0,0,0-.29-.21,1.16,1.16,0,0,0-.58-.06,1.13,1.13,0,0,0-.53.25,1.25,1.25,0,0,0-.32.73Z"/></svg>