<svg id="Слой_1" data-name="Слой 1" xmlns="http://www.w3.org/2000/svg" viewBox="0 0 181.84 60"><defs><style>.cls-1{fill:#cf0077;}</style></defs><title>leadcode-partner</title><path class="cls-1" d="M13,10h28.3v6.16c-9.18,0-18.37,0-27.56,0a5.91,5.91,0,0,0-4.12,1.7,6.05,6.05,0,0,0-1.79,4.27v9.75a6,6,0,0,1-3,5.27,7.25,7.25,0,0,1-3,.82V21.49a12.37,12.37,0,0,1,3.82-8.24A12.1,12.1,0,0,1,13,10Z"/><path class="cls-1" d="M55.17,10h3.89c1.34,1.73,2.66,3.48,4,5.22,1.36-1.72,2.66-3.49,4-5.22H71V25.22c-1.32,0-2.63,0-3.94,0,0-3,0-6,0-9Q65,18.56,63.07,21c-1.32-1.58-2.62-3.18-4-4.76,0,3,0,6,0,9H55.17Z"/><path class="cls-1" d="M78.51,10h3.64c2,5.06,4.06,10.11,6.08,15.18l-4,0c-.29-.69-.55-1.4-.82-2.1-2.06,0-4.11,0-6.16,0-.26.7-.54,1.39-.81,2.09h-4Q75.46,17.6,78.51,10Zm1.77,5.13q-.9,2.37-1.82,4.75h3.65C81.52,18.29,80.93,16.7,80.28,15.13Z"/><path class="cls-1" d="M89.71,10h9.47c0,1.18,0,2.35,0,3.53-1.84,0-3.68,0-5.53,0,0,3.89,0,7.78,0,11.67h-4Z"/><path class="cls-1" d="M101.28,10h4v5.68h5.86c0-1.89,0-3.79,0-5.68h3.94c0,5.07,0,10.14,0,15.22h-3.94c0-2,0-4,0-5.95h-5.86v5.95c-1.32,0-2.64,0-4,0C101.29,20.14,101.28,15.07,101.28,10Z"/><path class="cls-1" d="M118,10h4c0,2.85,0,5.71,0,8.56C124,15.72,126,12.84,128.1,10h3.4V25.22h-3.94c0-2.89,0-5.78,0-8.66l-6.28,8.66H118C118,20.14,118,15.07,118,10Z"/><path class="cls-1" d="M133.36,10h13.21c0,1.18,0,2.35,0,3.53h-4.63c0,3.9,0,7.79,0,11.69h-4V13.53h-4.62Z"/><path class="cls-1" d="M38.45,22.77A8.62,8.62,0,0,1,41.22,22V37.87a12.26,12.26,0,0,1-4.35,9.37A12,12,0,0,1,30.11,50H1.72V43.88H29a6.15,6.15,0,0,0,3-.73,6,6,0,0,0,3-3.88,11.75,11.75,0,0,0,.17-2.78c0-2.84,0-5.68,0-8.52A6,6,0,0,1,38.45,22.77Z"/><path class="cls-1" d="M12.73,22.21a28.39,28.39,0,0,1,5.72,1,4.4,4.4,0,0,1,3,3.85,4.49,4.49,0,0,1,3-3.84,29.62,29.62,0,0,1,5.77-1,33,33,0,0,1-.06,5.35,4.35,4.35,0,0,1-1.32,2.83,5.81,5.81,0,0,1-3.57,1.14,3.46,3.46,0,0,1,2.14,1.61,7.23,7.23,0,0,1,.52,4.61c-1.15-.14-2.32-.19-3.46-.43a3.42,3.42,0,0,1-2-1.19,6.38,6.38,0,0,1-1-2.07,4.46,4.46,0,0,1-1.89,2.87,10.56,10.56,0,0,1-3.61.73,2.49,2.49,0,0,1-.94,0,7.1,7.1,0,0,1,.53-4.56,3.46,3.46,0,0,1,2.12-1.6,6,6,0,0,1-3.5-1.07,4.33,4.33,0,0,1-1.4-2.88A34.38,34.38,0,0,1,12.73,22.21Z"/><path class="cls-1" d="M90,35.43a8.41,8.41,0,0,1,5.92-1.11,7.61,7.61,0,0,1,4.76,2.93c-.85.87-1.68,1.77-2.52,2.65A4.91,4.91,0,0,0,95,38a4.07,4.07,0,0,0-3.53,1.21,4.24,4.24,0,0,0-.88,4.17A4.17,4.17,0,0,0,94,46.21a5.08,5.08,0,0,0,4.42-1.92L100.8,47a8,8,0,0,1-2,1.84A9,9,0,0,1,95.17,50H93.64a8.32,8.32,0,0,1-6.42-4.1A7.68,7.68,0,0,1,86.51,40,7.88,7.88,0,0,1,90,35.43Z"/><path class="cls-1" d="M75.73,34.53a7.57,7.57,0,0,1,6,1.76,7.86,7.86,0,0,1,.47,11.44A7.69,7.69,0,0,1,77.48,50H76a8.52,8.52,0,0,1-3.2-1.13,7.77,7.77,0,0,1-3.6-5.55,7.85,7.85,0,0,1,1.46-5.76A7.64,7.64,0,0,1,75.73,34.53Zm.17,3.53a3.53,3.53,0,0,0-2.42,1.74,4.6,4.6,0,0,0,.73,5.59,3.69,3.69,0,0,0,5.12-.29A4.58,4.58,0,0,0,79.18,39,3.63,3.63,0,0,0,75.9,38.06Z"/><path class="cls-1" d="M55.17,34.87h4c0,1.72,0,3.44,0,5.16h1.14c1.31-1.72,2.6-3.45,3.91-5.17,1.49,0,3,0,4.46,0-1.71,2.32-3.44,4.64-5.16,7,2,2.72,4.06,5.45,6.11,8.16H65c-1.66-2.11-3.28-4.26-4.94-6.37h-1c0,2.12,0,4.24,0,6.37h-4Z"/><path class="cls-1" d="M102.49,34.86c1.31,0,2.62,0,3.94,0,1.29,1.72,2.6,3.44,3.91,5.15,1.31-1.73,2.63-3.44,3.94-5.17h3.9V50h-4c0-3,0-5.94,0-8.91-1.3,1.57-2.58,3.14-3.88,4.7l-3.88-4.7c0,3,0,5.94,0,8.91h-4C102.48,45,102.47,39.91,102.49,34.86Z"/><path class="cls-1" d="M120.94,34.86h10.91v3.56h-6.93v2.15h6.13c0,1.14,0,2.28,0,3.43h-6.14c0,.81,0,1.63,0,2.44h6.92c0,1.18,0,2.37,0,3.55H120.94Z"/><path class="cls-1" d="M134.23,34.87c4.28,0,8.56,0,12.84,0v3.56h-4.44V50h-4V38.43h-4.43Z"/><path class="cls-1" d="M149.45,34.87h4c0,2.82,0,5.63,0,8.45q3-4.24,6.11-8.48l3.4,0V50h-4c0-2.84,0-5.68,0-8.52-2.08,2.83-4.12,5.69-6.2,8.52h-3.31C149.45,45,149.44,39.91,149.45,34.87Z"/><path class="cls-1" d="M165.69,34.87h4c0,1.72,0,3.44,0,5.16h1.15c1.3-1.72,2.59-3.45,3.9-5.17,1.49,0,3,0,4.47,0-1.72,2.33-3.46,4.64-5.17,7l4.2,5.6c.64.81,1.19,1.71,1.91,2.47V50h-4.6c-1.54-2.07-3.15-4.1-4.72-6.15-.25-.39-.77-.17-1.14-.23,0,2.13,0,4.25,0,6.38h-4Z"/></svg>