<svg id="Слой_1" data-name="Слой 1" xmlns="http://www.w3.org/2000/svg" viewBox="0 0 118 60"><defs><style>.cls-1,.cls-4{fill:#3b3d40;}.cls-2{fill:#f7b800;}.cls-3{fill:none;}.cls-3,.cls-4{stroke:#3b3d40;stroke-width:0.35px;}</style></defs><title>leadcode-partner</title><path class="cls-1" d="M116.26,18.21V24.4c-2.26-.36-5.47.55-5.47,4.16v8.23h-5.46V18.57h5.46v3.25a5.47,5.47,0,0,1,5.47-3.61"/><path class="cls-1" d="M7.21,18.57H1.74V36.79H7.21Z"/><path class="cls-1" d="M10.3,27.68a9.63,9.63,0,0,1,17.89-5l-4.77,2.77a3.77,3.77,0,0,0-3.53-2,4.23,4.23,0,0,0,0,8.46,3.75,3.75,0,0,0,3.53-2l4.77,2.73A9.28,9.28,0,0,1,20,37.3a9.47,9.47,0,0,1-3.72-.67,9.3,9.3,0,0,1-3.16-2.08,9.46,9.46,0,0,1-2.78-6.87"/><path class="cls-1" d="M58.07,32.42A4.86,4.86,0,0,0,60,32.09,4.8,4.8,0,0,0,61.57,31l4.37,2.52A9.23,9.23,0,0,1,58,37.3c-6.23,0-10.09-4.19-10.09-9.62a9.34,9.34,0,0,1,9.69-9.62c5.32,0,9.25,4.12,9.25,9.62a10.11,10.11,0,0,1-.22,2.19H53.7c.69,1.89,2.37,2.55,4.37,2.55Zm3.35-6.64a4.11,4.11,0,0,0-7.83,0Z"/><path class="cls-1" d="M87.44,25.6V36.79H82V26.41a3,3,0,0,0-3.17-3.32c-2,0-3.39,1.17-3.39,3.75v10H70V18.57h5.46v1.71a6.27,6.27,0,0,1,5.21-2.22c3.68,0,6.81,2.62,6.81,7.54"/><path class="cls-1" d="M98.12,23.82v6.45c0,1.57,1.34,1.71,3.75,1.57v4.95c-7.14.73-9.22-1.42-9.22-6.52V23.82H89.73V18.57h2.92V15.11l5.47-1.64v5.1h3.75v5.25Z"/><path class="cls-2" d="M39.86,23.6a3.63,3.63,0,0,1,1.39.69,3.52,3.52,0,0,1,1,1.2L47,22.73a9.32,9.32,0,0,0-3-3.16,9.22,9.22,0,0,0-4.12-1.44Z"/><path class="cls-1" d="M38.69,31.91a4.06,4.06,0,0,1-1.62-.3,4,4,0,0,1-1.37-.91,3.91,3.91,0,0,1-.88-1.39,4,4,0,0,1-.25-1.63,4.07,4.07,0,0,1,2.16-3.78V18.26a9.63,9.63,0,0,0-7.56,10.62,9.67,9.67,0,0,0,5.33,7.45A9.64,9.64,0,0,0,47,32.6l-4.78-2.73a3.75,3.75,0,0,1-3.53,2"/><path class="cls-1" d="M30.24,44.38a2,2,0,0,1,.33-1.11,2,2,0,0,1,.89-.74,2,2,0,0,1,1.15-.12,2,2,0,0,1,1,.54,2,2,0,0,1,.55,1,2,2,0,0,1-.11,1.15,2,2,0,0,1-.73.89,2,2,0,0,1-1.11.34,1.94,1.94,0,0,1-1.41-.57,2,2,0,0,1-.43-.64A2,2,0,0,1,30.24,44.38Zm3.59,0a1.63,1.63,0,0,0-1-1.48,1.62,1.62,0,0,0-1.74.36A1.62,1.62,0,0,0,30.75,45a1.55,1.55,0,0,0,.59.72,1.6,1.6,0,0,0,.89.27,1.67,1.67,0,0,0,.62-.12,1.64,1.64,0,0,0,.52-.35,1.58,1.58,0,0,0,.35-.53A1.78,1.78,0,0,0,33.83,44.38Z"/><path class="cls-3" d="M33.83,44.38a1.63,1.63,0,0,0-1-1.48,1.62,1.62,0,0,0-1.74.36A1.62,1.62,0,0,0,30.75,45a1.55,1.55,0,0,0,.59.72,1.6,1.6,0,0,0,.89.27,1.67,1.67,0,0,0,.62-.12,1.64,1.64,0,0,0,.52-.35,1.58,1.58,0,0,0,.35-.53,1.78,1.78,0,0,0,.11-.61m-3.59,0a2,2,0,0,1,.33-1.11,2,2,0,0,1,.89-.74,2,2,0,0,1,1.15-.12,2,2,0,0,1,1,.54,2,2,0,0,1,.55,1,2,2,0,0,1-.11,1.15,2,2,0,0,1-.73.89,2,2,0,0,1-1.11.34,1.94,1.94,0,0,1-1.41-.57,2,2,0,0,1-.43-.64A2,2,0,0,1,30.24,44.38Z"/><path class="cls-1" d="M39.1,44.38a2,2,0,0,1-.15.75,1.83,1.83,0,0,1-.42.64,1.85,1.85,0,0,1-.64.43,2,2,0,0,1-.75.15,1.79,1.79,0,0,1-1-.25,1.83,1.83,0,0,1-.67-.71v2.39h-.38v-5.3h.38v.88a1.76,1.76,0,0,1,.67-.71,1.79,1.79,0,0,1,1-.25,2,2,0,0,1,.75.15,1.83,1.83,0,0,1,.64.42,1.92,1.92,0,0,1,.42.64,2,2,0,0,1,.15.76Zm-.38,0a1.63,1.63,0,0,0-1-1.48,1.61,1.61,0,0,0-.92-.09,1.72,1.72,0,0,0-.83.44A1.64,1.64,0,0,0,35.63,45a1.6,1.6,0,0,0,1.48,1,1.67,1.67,0,0,0,.62-.12A1.63,1.63,0,0,0,38.6,45,1.67,1.67,0,0,0,38.72,44.37Z"/><path class="cls-3" d="M38.72,44.37a1.63,1.63,0,0,0-1-1.48,1.61,1.61,0,0,0-.92-.09,1.72,1.72,0,0,0-.83.44A1.64,1.64,0,0,0,35.63,45a1.6,1.6,0,0,0,1.48,1,1.67,1.67,0,0,0,.62-.12A1.63,1.63,0,0,0,38.6,45a1.67,1.67,0,0,0,.12-.62m.38,0a2,2,0,0,1-.15.75,1.83,1.83,0,0,1-.42.64,1.85,1.85,0,0,1-.64.43,2,2,0,0,1-.75.15,1.79,1.79,0,0,1-1-.25,1.83,1.83,0,0,1-.67-.71v2.39h-.38v-5.3h.38v.88a1.76,1.76,0,0,1,.67-.71,1.79,1.79,0,0,1,1-.25,2,2,0,0,1,.75.15,1.83,1.83,0,0,1,.64.42,1.92,1.92,0,0,1,.42.64,2,2,0,0,1,.15.76Z"/><path class="cls-4" d="M42.38,42.85h-2v3.42H40V42.48h2.36Z"/><path class="cls-4" d="M46.63,42.48v3.79h-.39v-.86a1.9,1.9,0,0,1-.68.7,1.87,1.87,0,0,1-1,.24,2,2,0,0,1-1.4-.58,2,2,0,0,1,0-2.79,2,2,0,0,1,1.4-.58,1.87,1.87,0,0,1,1,.24,1.9,1.9,0,0,1,.68.7v-.85Zm-.39,1.9a1.63,1.63,0,0,0-1-1.48,1.52,1.52,0,0,0-.92-.08,1.58,1.58,0,0,0-1.25,1.26,1.65,1.65,0,0,0,.09.93,1.58,1.58,0,0,0,.59.71,1.6,1.6,0,0,0,.89.27,1.67,1.67,0,0,0,.62-.12,1.64,1.64,0,0,0,.52-.35,1.42,1.42,0,0,0,.34-.53A1.58,1.58,0,0,0,46.24,44.38Z"/><path class="cls-4" d="M50.92,42.48v3.79h-.39V44.56H48.17v1.71h-.38V42.48h.38v1.71h2.36V42.48Z"/><path class="cls-4" d="M57.24,46.27h-.39V42.86H54.49v3.41h-.38V42.48h3.13Z"/><path class="cls-4" d="M58.15,44.38a2,2,0,0,1,.33-1.11,2,2,0,0,1,.89-.74,2,2,0,0,1,1.15-.12,2,2,0,0,1,1,.54,2,2,0,0,1,.55,1,2,2,0,0,1-.84,2,2,2,0,0,1-1.11.34,1.94,1.94,0,0,1-1.41-.57,2,2,0,0,1-.43-.64A2,2,0,0,1,58.15,44.38Zm3.59,0a1.63,1.63,0,0,0-1-1.48,1.62,1.62,0,0,0-1.74.36A1.6,1.6,0,0,0,60.14,46a1.67,1.67,0,0,0,.62-.12,1.64,1.64,0,0,0,.52-.35,1.58,1.58,0,0,0,.35-.53A1.78,1.78,0,0,0,61.74,44.38Z"/><path class="cls-1" d="M64.8,44.38a2,2,0,0,1,.15-.77,1.84,1.84,0,0,1,.43-.65,1.78,1.78,0,0,1,.65-.42,2,2,0,0,1,.76-.14,1.75,1.75,0,0,1,1.65,1l-.31.18a1.42,1.42,0,0,0-.55-.59,1.46,1.46,0,0,0-.79-.2,1.67,1.67,0,0,0-1.11.49,1.63,1.63,0,0,0-.45,1.13,1.61,1.61,0,0,0,.45,1.12,1.62,1.62,0,0,0,1.11.49,1.59,1.59,0,0,0,.8-.21,1.51,1.51,0,0,0,.57-.58l.31.19a1.77,1.77,0,0,1-.7.71,1.88,1.88,0,0,1-1,.25,1.8,1.8,0,0,1-.76-.14,1.78,1.78,0,0,1-.65-.42,2,2,0,0,1-.44-.65,2.18,2.18,0,0,1-.14-.76"/><path class="cls-3" d="M64.8,44.38a2,2,0,0,1,.15-.77,1.84,1.84,0,0,1,.43-.65,1.78,1.78,0,0,1,.65-.42,2,2,0,0,1,.76-.14,1.75,1.75,0,0,1,1.65,1l-.31.18a1.42,1.42,0,0,0-.55-.59,1.46,1.46,0,0,0-.79-.2,1.67,1.67,0,0,0-1.11.49,1.63,1.63,0,0,0-.45,1.13,1.61,1.61,0,0,0,.45,1.12,1.62,1.62,0,0,0,1.11.49,1.59,1.59,0,0,0,.8-.21,1.51,1.51,0,0,0,.57-.58l.31.19a1.77,1.77,0,0,1-.7.71,1.88,1.88,0,0,1-1,.25,1.8,1.8,0,0,1-.76-.14,1.78,1.78,0,0,1-.65-.42,2,2,0,0,1-.44-.65,2.18,2.18,0,0,1-.14-.76"/><path class="cls-1" d="M72.84,44.39v.18H69.41A1.54,1.54,0,0,0,71,46a1.4,1.4,0,0,0,.75-.17,1.47,1.47,0,0,0,.56-.52l.34.2a1.93,1.93,0,0,1-.72.64,1.79,1.79,0,0,1-.93.21,2,2,0,0,1-1.14-.26,2,2,0,0,1-1-2,2,2,0,0,1,1.52-1.63,2,2,0,0,1,2.08.83,1.94,1.94,0,0,1,.33,1.12Zm-3.43-.19h3a1.51,1.51,0,0,0-.44-1,1.49,1.49,0,0,0-1-.42,1.53,1.53,0,0,0-1.07.41A1.5,1.5,0,0,0,69.41,44.2Z"/><path class="cls-3" d="M69.41,44.2h3a1.51,1.51,0,0,0-.44-1,1.49,1.49,0,0,0-1-.42,1.53,1.53,0,0,0-1.07.41,1.5,1.5,0,0,0-.49,1m3.43.19v.18H69.41A1.54,1.54,0,0,0,71,46a1.4,1.4,0,0,0,.75-.17,1.47,1.47,0,0,0,.56-.52l.34.2a1.93,1.93,0,0,1-.72.64,1.79,1.79,0,0,1-.93.21,2,2,0,0,1-1.14-.26,2,2,0,0,1-1-2,2,2,0,0,1,1.52-1.63,2,2,0,0,1,2.08.83,1.94,1.94,0,0,1,.33,1.12Z"/><path class="cls-4" d="M77.7,44.38a1.78,1.78,0,0,1-.14.75,2,2,0,0,1-.42.64,2,2,0,0,1-.64.43,2,2,0,0,1-.76.15,1.78,1.78,0,0,1-.95-.25,1.85,1.85,0,0,1-.68-.71v2.39h-.37v-5.3h.37v.88a1.81,1.81,0,0,1,1.63-1,2.18,2.18,0,0,1,.76.14,2.12,2.12,0,0,1,.64.43,2.09,2.09,0,0,1,.42.64,1.8,1.8,0,0,1,.14.76Zm-.38,0a1.56,1.56,0,0,0-.27-.89,1.6,1.6,0,0,0-1.65-.68,1.61,1.61,0,0,0-1.26,1.27,1.53,1.53,0,0,0,.1.92,1.49,1.49,0,0,0,.59.72,1.56,1.56,0,0,0,.89.27,1.67,1.67,0,0,0,.62-.12,1.63,1.63,0,0,0,.87-.87A1.48,1.48,0,0,0,77.32,44.37Z"/><path class="cls-4" d="M81.12,42.85H79.74v3.42h-.38V42.85H78v-.37h3.14Z"/><path class="cls-4" d="M84.93,42.48v3.79h-.39V43.14l-2.4,3.13H81.8V42.48h.38v3.13l2.42-3.13Z"/><path class="cls-1" d="M88.24,46.35v1.43h-.38V46.35a1.8,1.8,0,0,1-.76-.14,1.93,1.93,0,0,1-.66-.43,2,2,0,0,1-.44-.64,2,2,0,0,1,0-1.53,2.2,2.2,0,0,1,.44-.65,1.91,1.91,0,0,1,.66-.42,1.8,1.8,0,0,1,.76-.14V41h.38V42.4a1.88,1.88,0,0,1,.77.14,2,2,0,0,1,.65.42,2,2,0,0,1,.44.65,2,2,0,0,1,0,1.53,1.88,1.88,0,0,1-.44.64,2,2,0,0,1-.65.43A1.88,1.88,0,0,1,88.24,46.35ZM87.86,46V42.77a1.48,1.48,0,0,0-.62.11,1.58,1.58,0,0,0-.53.35,1.43,1.43,0,0,0-.36.52,1.57,1.57,0,0,0,0,1.25,1.52,1.52,0,0,0,.36.52,1.58,1.58,0,0,0,.53.35A1.66,1.66,0,0,0,87.86,46Zm2-1.61a1.91,1.91,0,0,0-.13-.62,1.67,1.67,0,0,0-.36-.52,1.58,1.58,0,0,0-.53-.35,1.84,1.84,0,0,0-.62-.11V46a1.63,1.63,0,0,0,.62-.12,1.55,1.55,0,0,0,.53-.34,1.64,1.64,0,0,0,.49-1.15"/><path class="cls-3" d="M89.88,44.37a1.91,1.91,0,0,0-.13-.62,1.67,1.67,0,0,0-.36-.52,1.58,1.58,0,0,0-.53-.35,1.84,1.84,0,0,0-.62-.11V46a1.63,1.63,0,0,0,.62-.12,1.55,1.55,0,0,0,.53-.34,1.64,1.64,0,0,0,.49-1.15m-1.64,2v1.43h-.38V46.35a1.8,1.8,0,0,1-.76-.14,1.93,1.93,0,0,1-.66-.43,2,2,0,0,1-.44-.64,2,2,0,0,1,0-1.53,2.2,2.2,0,0,1,.44-.65,1.91,1.91,0,0,1,.66-.42,1.8,1.8,0,0,1,.76-.14V41h.38V42.4a1.88,1.88,0,0,1,.77.14,2,2,0,0,1,.65.42,2,2,0,0,1,.44.65,2,2,0,0,1,0,1.53,1.88,1.88,0,0,1-.44.64,2,2,0,0,1-.65.43,1.88,1.88,0,0,1-.77.14ZM87.86,46V42.77a1.48,1.48,0,0,0-.62.11,1.58,1.58,0,0,0-.53.35,1.43,1.43,0,0,0-.36.52,1.57,1.57,0,0,0,0,1.25,1.52,1.52,0,0,0,.36.52,1.58,1.58,0,0,0,.53.35A1.66,1.66,0,0,0,87.86,46Z"/><path class="cls-4" d="M94.3,42.48v3.79h-.38V43.14l-2.41,3.13h-.33V42.48h.37v3.13L94,42.48Z"/><path class="cls-4" d="M97.85,46.27l-2-1.86v1.86h-.38V42.48h.38V44.2l1.91-1.72h.53l-2,1.82,2.12,2Z"/><path class="cls-4" d="M102.47,42.48v3.79h-.39v-.86a1.79,1.79,0,0,1-1.63.94,2,2,0,0,1,0-4,1.79,1.79,0,0,1,1.63.94v-.86Zm-.39,1.9a1.63,1.63,0,0,0-.27-.89,1.66,1.66,0,0,0-.72-.59,1.63,1.63,0,0,0-1.75.36A1.62,1.62,0,0,0,99,45a1.55,1.55,0,0,0,.59.72,1.63,1.63,0,0,0,1.51.15,1.54,1.54,0,0,0,.52-.35A1.58,1.58,0,0,0,102,45,1.41,1.41,0,0,0,102.08,44.38Z"/><path class="cls-4" d="M107.29,45.9v1.38h-.38v-1h-3.27V42.48H104V45.9h2.28V42.48h.39V45.9Z"/><path class="cls-4" d="M111.26,42.48v3.79h-.39V43.14l-2.41,3.13h-.33V42.48h.38v3.13l2.41-3.13Z"/><path class="cls-4" d="M115.55,42.48v3.79h-.38V43.14l-2.41,3.13h-.33V42.48h.37v3.13l2.42-3.13Z"/></svg>