<?xml version="1.0" encoding="utf-8"?>
<!-- Generator: Adobe Illustrator 23.0.1, SVG Export Plug-In . SVG Version: 6.00 Build 0)  -->
<svg version="1.1" id="Layer_1" xmlns="http://www.w3.org/2000/svg" xmlns:xlink="http://www.w3.org/1999/xlink" x="0px" y="0px"
	 viewBox="0 0 231.8 54.5" style="enable-background:new 0 0 231.8 54.5;" xml:space="preserve">
<style type="text/css">
	.st0{fill:#FAFAFA;}
</style>
<g>
	<g>
		<g>
			<path class="st0" d="M26.8,16.2c-8.4,0-14.2,6.4-14.2,14.5c0,8.7,6.1,14.7,14.9,14.7c4.3,0,7.6-1.3,10.8-3.8l-2.8-4.3
				c-1.9,1.7-4.1,2.6-7.3,2.6c-4.5,0-7.9-2.4-8.8-6.8h19.8c0.1-1.1,0.2-2.2,0.2-3.2C39.4,21.5,34.6,16.2,26.8,16.2z M19.4,28.4
				c0.7-4.3,3.7-6.7,7.3-6.7c3.5,0,6.1,2.3,6.3,6.7H19.4z"/>
		</g>
	</g>
	<g>
		<g>
			<path class="st0" d="M56,16.5c-3.7,0-7.5,1-11.6,2.8l1.9,5.1c2.8-1.4,5.9-2.2,8.6-2.2c3.5,0,5.6,1.4,5.6,4.3v1.2
				c-1-0.1-2-0.1-3.5-0.1c-8.4,0-14,3.5-14,9.8c0,4.9,3.6,7.7,8.7,7.7c4,0,6.9-1.4,9-3.8v3.2h2.1h4.5v-5.2V26.7
				C67.4,20.1,63.1,16.5,56,16.5z M53.8,40.1c-2.5,0-4-1.2-4-3.3c0-3,2.8-4.8,7.7-4.8c1.2,0,2.1,0.1,3.2,0.2
				C60.7,37.2,57.8,40.1,53.8,40.1z"/>
		</g>
	</g>
	<g>
		<g>
			<path class="st0" d="M123.6,39.4c-4.5,0-8.1-3.2-8.1-8.7c0-5.3,3.6-8.7,8.2-8.7c2.7,0,4.5,0.7,6.5,2.4l3.3-4.5
				c-2.9-2.5-6.3-3.7-10.3-3.7c-7.9,0-14.6,5.5-14.6,14.6c0,9.7,7.2,14.6,14.2,14.6c4.9,0,8-1.4,11.1-4.3l-3.4-4.5
				C128.6,38.5,126.5,39.4,123.6,39.4z"/>
		</g>
	</g>
	<g>
		<g>
			<path class="st0" d="M231.8,30.6c0-8.3-4.8-13.6-12.6-13.6c-8.4,0-14.2,6.4-14.2,14.5c0,8.7,6.1,14.7,14.9,14.7
				c4.3,0,7.6-1.3,10.8-3.8l-2.8-4.3c-1.9,1.7-4.1,2.6-7.3,2.6c-4.5,0-7.9-2.4-8.8-6.8h19.8C231.7,32.7,231.8,31.6,231.8,30.6z
				 M211.8,29.2c0.7-4.3,3.7-6.7,7.3-6.7c3.5,0,6.1,2.3,6.3,6.7H211.8z"/>
		</g>
	</g>
	<g>
		<g>
			<path class="st0" d="M8.5,2.4C8.5,1.1,7.5,0,6.1,0H3.6H1.8H0v4.6h1.8V40H0v4.6h1.8h6.8h1.7V40H8.6L8.5,2.4z"/>
		</g>
	</g>
	<g>
		<g>
			<path class="st0" d="M102.5,40v-0.6v-37c0-1.3-1.1-2.4-2.4-2.4h-4.3v12.3c0,3,0.1,5.4,0.2,7.9c-2.2-2.5-5.5-4-9.2-4
				c-7.7,0-13.3,6-13.3,14.3c0,8.7,5.4,14.7,13.3,14.7c3.9,0,7-1.5,9.2-4v3.3h0h4.7h1.8h1.8V40H102.5z M88,39.4
				c-4.7,0-7.9-3.5-7.9-8.6c0-5.1,3.2-8.5,7.9-8.5c4.8,0,7.9,3.5,7.9,8.5C96,35.9,92.9,39.4,88,39.4z"/>
		</g>
	</g>
	<g>
		<g>
			<path class="st0" d="M199.9,40v-0.6v-37c0-1.3-1.1-2.4-2.4-2.4h-4.3v12.3c0,3,0.1,5.4,0.2,7.9c-2.2-2.5-5.5-4-9.2-4
				c-7.7,0-13.3,6-13.3,14.3c0,8.7,5.4,14.7,13.3,14.7c3.9,0,7-1.5,9.2-4v3.3h2h2.8h1.8h1.8V40H199.9z M185.5,39.4
				c-4.7,0-7.9-3.5-7.9-8.6c0-5.1,3.2-8.5,7.9-8.5c4.8,0,7.9,3.5,7.9,8.5C193.4,35.9,190.3,39.4,185.5,39.4z"/>
		</g>
	</g>
	<g>
		<g>
			<path class="st0" d="M136.6,30.8c0-8.5,6.1-14.6,14.8-14.6c8.7,0,14.9,6,14.9,14.6s-6.2,14.6-14.9,14.6
				C142.7,45.4,136.6,39.3,136.6,30.8z M159.4,30.8c0-5.1-3.2-8.6-8-8.6c-4.7,0-8,3.5-8,8.6s3.3,8.6,8,8.6
				C156.2,39.4,159.4,35.9,159.4,30.8z"/>
		</g>
	</g>
	<g id="Group_5_1_" transform="translate(160.926 55.454)">
		<g id="Rectangle_1_1_">
			<g>
				<rect x="-20.3" y="-6.7" class="st0" width="21.5" height="5.7"/>
			</g>
		</g>
	</g>
</g>
</svg>
